<?xml version="1.0" encoding="iso-8859-1"?>
<!-- Generator: Adobe Illustrator 19.0.0, SVG Export Plug-In . SVG Version: 6.00 Build 0)  -->
<svg version="1.1" id="Capa_1" xmlns="http://www.w3.org/2000/svg" xmlns:xlink="http://www.w3.org/1999/xlink" x="0px" y="0px"
	 viewBox="0 0 512 512" style="enable-background:new 0 0 512 512;" xml:space="preserve">
<path style="fill:#555A66;" d="M271,136v240c0,8.399-6.599,15-15,15s-15-6.601-15-15V136c0-8.401,6.599-15,15-15
	S271,127.599,271,136z"/>
<path style="fill:#3C3A41;" d="M256,391V121c8.401,0,15,6.599,15,15v240C271,384.399,264.401,391,256,391z"/>
<path style="fill:#BF6015;" d="M512,301l-17.401,17.399L512,331v90l-12.599,17.399L512,451v46c0,8.399-6.599,15-15,15H15
	c-8.401,0-15-6.601-15-15v-46l21.301-12.601L0,421v-90l13.801-13.801L0,301v-75c0-8.401,6.599-15,15-15h54.699L95.5,185.499
	C98.2,182.5,102.1,181,106,181h60c8.401,0,15,6.599,15,15v75l-18.6,18.6L181,301v45c0,41.4,33.6,75,75,75s75-33.6,75-75v-45
	l18.6-18.6L331,271v-75c0-8.401,6.599-15,15-15h60c3.9,0,7.8,1.5,10.499,4.499L442.301,211H497c8.401,0,15,6.599,15,15V301z"/>
<path style="fill:#994C10;" d="M512,301l-17.401,17.399L512,331v90l-12.599,17.399L512,451v46c0,8.399-6.599,15-15,15H256v-91
	c41.4,0,75-33.6,75-75v-45l18.6-18.6L331,271v-75c0-8.401,6.599-15,15-15h60c3.9,0,7.8,1.5,10.499,4.499L442.301,211H497
	c8.401,0,15,6.599,15,15V301z"/>
<g>
	<path style="fill:#707789;" d="M292.599,329.5l-60,30c-7.5,3.6-16.199,0.599-20.099-6.901c-3.6-7.2-0.599-16.199,6.901-20.099
		l60-30c7.2-3.6,16.199-0.601,20.099,6.899C303.1,316.599,300.099,325.6,292.599,329.5z"/>
	<path style="fill:#707789;" d="M292.599,269.5l-60,30c-7.5,3.6-16.199,0.599-20.099-6.901c-3.6-7.2-0.599-16.199,6.901-20.099
		l60-30c7.2-3.6,16.199-0.601,20.099,6.899C303.1,256.599,300.099,265.6,292.599,269.5z"/>
	<path style="fill:#707789;" d="M292.599,209.5l-60,30c-17.699,8.7-31.199-18.001-13.198-27l60-30
		c7.2-3.6,16.199-0.601,20.099,6.899C303.1,196.599,300.099,205.6,292.599,209.5z"/>
</g>
<g>
	<path style="fill:#713708;" d="M391,286c0,8.291-6.709,15-15,15h-45v-30h45C384.291,271,391,277.709,391,286z"/>
	<path style="fill:#713708;" d="M451,376c0,8.291-6.709,15-15,15h-30c-8.291,0-15-6.709-15-15s6.709-15,15-15h30
		C444.291,361,451,367.709,451,376z"/>
	<path style="fill:#713708;" d="M512,451h-46c-8.291,0-15-6.709-15-15s6.709-15,15-15h46V451z"/>
	<path style="fill:#713708;" d="M512,331h-46c-8.291,0-15-6.709-15-15s6.709-15,15-15h46V331z"/>
</g>
<g>
	<path style="fill:#994C0F;" d="M181,301h-45c-8.291,0-15-6.709-15-15s6.709-15,15-15h45V301z"/>
	<path style="fill:#994C0F;" d="M106,391H76c-8.291,0-15-6.709-15-15s6.709-15,15-15h30c8.291,0,15,6.709,15,15S114.291,391,106,391
		z"/>
	<path style="fill:#994C0F;" d="M61,436c0,8.291-6.709,15-15,15H0v-30h46C54.291,421,61,427.709,61,436z"/>
	<path style="fill:#994C0F;" d="M61,316c0,8.291-6.709,15-15,15H0v-30h46C54.291,301,61,307.709,61,316z"/>
</g>
<g>
	<path style="fill:#555A66;" d="M299.5,309.399c3.6,7.2,0.599,16.201-6.901,20.101L256,347.8v-33.6l23.401-11.7
		C286.601,298.9,295.6,301.899,299.5,309.399z"/>
	<path style="fill:#555A66;" d="M299.5,249.399c3.6,7.2,0.599,16.201-6.901,20.101L256,287.8v-33.6l23.401-11.7
		C286.601,238.9,295.6,241.899,299.5,249.399z"/>
	<path style="fill:#555A66;" d="M299.5,189.399c3.6,7.2,0.599,16.201-6.901,20.101L256,227.8v-33.6l23.401-11.7
		C286.601,178.9,295.6,181.899,299.5,189.399z"/>
</g>
<path style="fill:#FEDB41;" d="M316,0H196c-12.001,0-19.2,13.2-12.599,23.399L211,64.499V106c0,24.899,20.099,45,45,45
	s45-20.101,45-45V64.499l27.599-41.1C335.2,13.2,328.001,0,316,0z"/>
<path style="fill:#FCBF29;" d="M328.599,23.399L301,64.499V106c0,24.899-20.099,45-45,45V0h60C328.001,0,335.2,13.2,328.599,23.399z
	"/>
<g>
</g>
<g>
</g>
<g>
</g>
<g>
</g>
<g>
</g>
<g>
</g>
<g>
</g>
<g>
</g>
<g>
</g>
<g>
</g>
<g>
</g>
<g>
</g>
<g>
</g>
<g>
</g>
<g>
</g>
</svg>
