<?xml version="1.0" encoding="UTF-8"?>
<svg width="523px" height="306px" viewBox="0 0 523 306" version="1.1" xmlns="http://www.w3.org/2000/svg" xmlns:xlink="http://www.w3.org/1999/xlink">
    <!-- Generator: Sketch 50.2 (55047) - http://www.bohemiancoding.com/sketch -->
    <title>shutterstock_1071873584 [Convertido]</title>
    <desc>Created with Sketch.</desc>
    <defs>
        <linearGradient x1="99.9894438%" y1="50.0012731%" x2="0.0236357167%" y2="50.0012731%" id="linearGradient-1">
            <stop stop-color="#E0F0EB" offset="0%"></stop>
            <stop stop-color="#C0E4EF" offset="100%"></stop>
        </linearGradient>
        <linearGradient x1="100.006828%" y1="50.0964339%" x2="-0.026553731%" y2="50.0964339%" id="linearGradient-2">
            <stop stop-color="#E0F0EB" offset="0%"></stop>
            <stop stop-color="#C0E4EF" offset="100%"></stop>
        </linearGradient>
        <linearGradient x1="82.5326398%" y1="61.6173048%" x2="-57.5341436%" y2="-22.5548252%" id="linearGradient-3">
            <stop stop-color="#E0F0EB" offset="0%"></stop>
            <stop stop-color="#C0E4EF" offset="100%"></stop>
        </linearGradient>
        <linearGradient x1="100.018855%" y1="50.0194604%" x2="-0.0333100559%" y2="50.0194604%" id="linearGradient-4">
            <stop stop-color="#E0F0EB" offset="0%"></stop>
            <stop stop-color="#C0E4EF" offset="100%"></stop>
        </linearGradient>
        <linearGradient x1="0.193956701%" y1="50.0138111%" x2="100.245572%" y2="50.0138111%" id="linearGradient-5">
            <stop stop-color="#E0F0EB" offset="0%"></stop>
            <stop stop-color="#C0E4EF" offset="100%"></stop>
        </linearGradient>
        <linearGradient x1="-0.464444444%" y1="49.9079365%" x2="99.3655556%" y2="49.9079365%" id="linearGradient-6">
            <stop stop-color="#E0F0EB" offset="0%"></stop>
            <stop stop-color="#C0E4EF" offset="100%"></stop>
        </linearGradient>
        <linearGradient x1="0.295505618%" y1="50.0358974%" x2="100.377528%" y2="50.0358974%" id="linearGradient-7">
            <stop stop-color="#E0F0EB" offset="0%"></stop>
            <stop stop-color="#C0E4EF" offset="100%"></stop>
        </linearGradient>
        <linearGradient x1="-0.30625%" y1="53.075%" x2="103.39375%" y2="53.075%" id="linearGradient-8">
            <stop stop-color="#E0F0EB" offset="0%"></stop>
            <stop stop-color="#C0E4EF" offset="100%"></stop>
        </linearGradient>
        <linearGradient x1="0.0979879276%" y1="50.1269006%" x2="100.017505%" y2="50.1269006%" id="linearGradient-9">
            <stop stop-color="#F1F8F8" offset="6.3e-05%"></stop>
            <stop stop-color="#C0E4EF" offset="100%"></stop>
        </linearGradient>
        <linearGradient x1="0.011092437%" y1="49.8517483%" x2="99.9835294%" y2="49.8517483%" id="linearGradient-10">
            <stop stop-color="#F1F8F8" offset="6.3e-05%"></stop>
            <stop stop-color="#C0E4EF" offset="100%"></stop>
        </linearGradient>
        <linearGradient x1="0.0715012723%" y1="49.8388235%" x2="100.001018%" y2="49.8388235%" id="linearGradient-11">
            <stop stop-color="#F1F8F8" offset="6.3e-05%"></stop>
            <stop stop-color="#C0E4EF" offset="100%"></stop>
        </linearGradient>
        <linearGradient x1="0.0886435331%" y1="50.0671171%" x2="99.9952681%" y2="50.0671171%" id="linearGradient-12">
            <stop stop-color="#F1F8F8" offset="6.3e-05%"></stop>
            <stop stop-color="#C0E4EF" offset="100%"></stop>
        </linearGradient>
    </defs>
    <g id="v5" stroke="none" stroke-width="1" fill="none" fill-rule="evenodd">
        <g id="17-05-2018-tsi-contact" transform="translate(-265.000000, -492.000000)" fill-rule="nonzero">
            <g id="shutterstock_1071873584-[Convertido]" transform="translate(265.597656, 492.225568)">
                <path d="M521.449233,185.267443 C525.807461,204.067645 481.370621,206.545853 463.083152,206.716764 C458.041279,206.802219 452.999407,206.289487 447.957535,205.264021 C432.490096,202.102169 398.649733,193.898445 403.349783,182.703779 C409.502577,168.261806 427.875501,178.34555 427.875501,178.34555 C427.875501,178.34555 425.568204,167.407251 456.930358,160.228992 C488.292513,153.050733 488.121602,177.063718 488.121602,177.063718 C488.121602,177.063718 515.980083,161.59628 521.449233,185.267443 Z" id="Shape" fill="url(#linearGradient-1)"></path>
                <path d="M211.929547,89.4718693 L33.4985413,89.4718693 C33.4985413,89.4718693 23.8420741,77.2517382 33.4985413,68.9625583 C38.8822355,64.4334188 45.1204842,64.8606961 49.7350792,66.2279835 C52.7260204,67.0825381 55.7169616,65.1170625 56.3151498,62.0406658 C57.4260709,56.9987935 60.7588339,50.4187229 70.3298457,46.4877716 C79.815402,42.6422758 85.7972844,48.5387027 89.2155029,54.5205851 C90.3264239,56.4860608 93.4028206,56.2296944 94.0864643,54.0078523 C97.0774055,44.522296 107.502972,31.960343 141.856068,31.960343 C185.523809,31.960343 180.652848,55.1187734 176.721897,64.7752406 C176.038253,66.4843499 177.490996,68.1934591 179.28556,67.7661818 C186.036542,66.313439 198.51304,64.4334188 204.1531,68.8771028 C211.929547,75.2008071 211.929547,89.4718693 211.929547,89.4718693 Z" id="Shape" fill="url(#linearGradient-2)"></path>
                <g id="Group" transform="translate(0.000000, 94.001009)">
                    <g transform="translate(50.418723, 0.000000)" id="Shape">
                        <path d="M90.4973349,95.1973853 C90.4973349,95.1973853 79.9008575,14.954706 22.4747867,0.0854554626 C-36.9167598,83.0627096 44.7786624,141.25788 44.7786624,141.25788 L90.4973349,95.1973853 Z" fill="#01898C"></path>
                        <path d="M22.4747867,0.0854554626 C22.3038757,0.34182185 22.0475093,0.683643701 21.8765984,0.940010088 L57.5969818,89.3864139 L1.3672874,69.9025684 C1.45274286,70.5862121 1.53819833,71.1844003 1.62365379,71.868044 L58.4515364,91.5228004 L68.7916474,117.073984 L70.1589348,115.706696 L49.6496238,64.8606961 L69.0480138,36.4040271 C68.7061919,35.8912943 68.3643701,35.293106 68.0225482,34.7803733 L48.8805246,62.8952205 L23.6711631,0.427277313 C23.1584304,0.256366388 22.8166085,0.170910925 22.4747867,0.0854554626 Z" fill="#FFFFFF"></path>
                    </g>
                    <g transform="translate(0.000000, 46.145950)" id="Shape">
                        <path d="M114.339409,42.0440876 C114.339409,42.0440876 56.0587834,-13.8437849 1.96547564,3.50367397 C-11.5364874,70.5007566 60.8442894,96.9064946 60.8442894,96.9064946 L131.345046,93.8300979 L114.339409,42.0440876 Z" fill="#FFD247"></path>
                        <path d="M64.6897852,9.57101181 L63.6643196,45.3768506 L3.24730758,3.24730758 C2.82003026,3.4182185 2.39275295,3.50367397 1.96547564,3.67458489 C1.88002018,3.93095128 1.88002018,4.18731767 1.79456471,4.44368405 L34.182185,26.9184707 L1.88002018,34.7803733 C1.96547564,35.1221951 2.0509311,35.3785615 2.0509311,35.7203834 L2.22184203,36.4894825 L36.0622052,28.2003026 L89.9846021,65.8007062 L33.7549077,81.4390558 C34.353096,81.8663331 34.9512842,82.3790659 35.5494724,82.8063432 L91.8646223,67.0825381 L130.14867,93.8300979 L131.345046,93.7446424 L130.832313,92.1209887 L65.3734289,46.4877716 L66.3988944,10.2546555 C65.8861616,10.0837446 65.2879734,9.8273782 64.6897852,9.57101181 Z" fill="#FFFFFF"></path>
                    </g>
                    <g transform="translate(21.363866, 125.619530)" id="Shape">
                        <path d="M89.8136912,1.11092101 C89.8136912,1.11092101 23.1584304,-8.71645718 0.769099163,30.5930556 C44.9495733,111.775745 151.341624,61.1861112 151.341624,61.1861112 L89.8136912,1.11092101 Z" fill="#63C1C5"></path>
                        <path d="M0.769099163,30.5930556 C0.940010088,30.9348775 1.11092101,31.1912438 1.28183194,31.5330657 L92.2918996,37.9422254 L58.6224473,74.5171634 C59.306091,74.6880743 59.9897347,74.7735298 60.6733784,74.9444407 L94.5137416,38.1131363 L130.063214,40.5913447 L128.097738,38.7113245 L58.8788137,33.8403632 L33.9258186,5.4691496 C33.3276304,5.64006053 32.7294422,5.89642692 32.1312539,6.06733784 L56.3151498,33.6694523 L1.19637648,29.8239564 C1.11092101,29.9948674 0.940010088,30.2512338 0.769099163,30.5930556 Z" fill="#01898C"></path>
                    </g>
                </g>
                <g id="Group" transform="translate(358.058388, 115.364874)">
                    <g id="Shape">
                        <path d="M6.83643701,104.170209 C6.83643701,104.170209 -15.4674387,34.6094623 25.7220942,0.34182185 C106.135685,45.1204842 61.8697549,124.166787 61.8697549,124.166787 L6.83643701,104.170209 Z" fill="#01898C"></path>
                        <path d="M25.7220942,0.34182185 C25.9784606,0.512732775 26.234827,0.683643701 26.5766489,0.854554626 L31.5330657,86.82275 L69.9025684,49.3078019 C70.0734793,49.9059901 70.2443902,50.4187229 70.4153012,51.0169112 L31.5330657,88.8736811 L32.9858086,113.655765 L31.3621548,113.057577 L28.5421245,63.6643196 L1.70910925,47.855059 C1.79456471,47.2568708 1.88002018,46.744138 1.96547564,46.1459498 L28.456669,61.698844 L24.9529951,1.02546555 C25.2093615,0.769099163 25.4657278,0.512732775 25.7220942,0.34182185 Z" fill="#FFFFFF"></path>
                    </g>
                    <g transform="translate(25.636639, 12.818319)" id="Shape">
                        <path d="M0.170910925,75.371718 C0.170910925,75.371718 26.234827,7.34916978 76.9953718,0.683643701 C113.826676,50.0769011 64.9461516,99.5556139 64.9461516,99.5556139 L6.15279331,124.166787 L0.170910925,75.371718 Z" fill="#FFD247"></path>
                        <path d="M28.2003026,29.738501 L42.8131868,58.5369919 L75.8844508,0.854554626 C76.3117281,0.769099163 76.6535499,0.769099163 77.0808272,0.683643701 C77.2517382,0.854554626 77.3371936,1.11092101 77.5081046,1.28183194 L59.8188238,32.1312539 L89.2155029,26.1493715 C89.3009584,26.4057379 89.3009584,26.6621043 89.3864139,27.0039262 L89.5573248,27.7730253 L58.7933583,34.0967296 L29.2257682,85.4554626 L81.1826894,76.5680945 C80.8408676,77.1662827 80.5845012,77.7644709 80.2426794,78.3626592 L28.2003026,87.2500273 L7.26371432,123.824965 L6.23824877,124.252243 L6.06733784,122.714044 L41.8731767,60.2461011 L27.0893816,31.1057884 C27.4312035,30.5930556 27.7730253,30.1657783 28.2003026,29.738501 Z" fill="#FFFFFF"></path>
                    </g>
                    <g transform="translate(32.473076, 99.128337)" id="Shape">
                        <path d="M10.7673883,19.3129345 L0.598188238,46.5732271 C4.1018622,47.5132372 7.34916978,49.136891 10.340111,51.1878221 C12.4764975,53.1532977 14.6128841,55.1187734 16.7492707,57.084249 C20.1674892,60.9297448 22.3038757,65.6297953 23.3293413,70.5862121 C25.6366388,72.2953213 27.7730253,74.260797 29.5675901,76.3117281 C31.3621548,78.3626592 32.8148976,80.5845012 33.9258186,83.0627096 C62.1261213,73.149876 92.2064441,52.469654 94.6846525,9.05827903 C61.3570221,-14.4419732 10.7673883,19.3129345 10.7673883,19.3129345 Z" fill="#043C5E"></path>
                        <path d="M94.770108,9.05827903 C94.5137416,8.88736811 94.2573752,8.71645718 94.0010088,8.54554626 L50.5041784,32.9003531 L59.6479129,1.02546555 C59.0497246,1.11092101 58.5369919,1.11092101 57.9388036,1.19637648 L48.5387027,33.9258186 L13.2455967,53.8369414 C13.672874,54.1787633 14.1001513,54.6060406 14.5274286,54.9478624 L21.1074993,51.2732775 L62.8952205,68.2789146 C63.4079532,67.9370927 63.920686,67.5098154 64.4334188,67.1679936 L22.902064,50.3332675 L94.770108,10.0837446 C94.6846525,9.65646727 94.770108,9.40010088 94.770108,9.05827903 Z" fill="#00666A"></path>
                    </g>
                </g>
                <g id="Group" transform="translate(66.655261, 77.764471)">
                    <polygon id="Shape" fill="#63C1C5" points="0.598188238 0.683643701 294.052247 0.683643701 367.971222 211.587725 68.2789146 211.587725"></polygon>
                    <polygon id="Shape" fill="#043C5E" points="13.0746858 7.86190256 286.617621 7.86190256 355.409269 204.409466 76.2262726 204.409466"></polygon>
                    <path d="M445.821148,221.756925 L71.7825886,221.756925 C67.7661818,221.756925 64.5188742,218.509618 64.5188742,214.493211 L64.5188742,209.878616 C64.5188742,205.862209 67.7661818,202.614902 71.7825886,202.614902 L445.821148,202.614902 C449.837555,202.614902 453.084863,205.862209 453.084863,209.878616 L453.084863,214.493211 C453.084863,218.509618 449.837555,221.756925 445.821148,221.756925 Z" id="Shape" fill="#F7A605"></path>
                    <path d="M200.051238,221.756925 L68.9625583,221.756925 C66.5698053,221.756925 64.5188742,219.79145 64.5188742,217.313241 L64.5188742,206.97313 C64.5188742,204.580377 66.4843499,202.529446 68.9625583,202.529446 L200.051238,202.529446 C204.324011,202.529446 207.827685,206.03312 207.827685,210.305893 L207.827685,213.809567 C207.827685,218.253251 204.324011,221.756925 200.051238,221.756925 Z" id="Shape" fill="#FFDB71"></path>
                    <circle id="Oval" fill="#FFDB71" cx="337.378166" cy="211.929547" r="2.82003026"></circle>
                    <circle id="Oval" fill="#F18813" cx="320.628896" cy="211.929547" r="2.82003026"></circle>
                    <path d="M166.125419,214.920488 L149.461604,214.920488 C147.667039,214.920488 146.128841,213.467746 146.128841,211.587725 C146.128841,209.793161 147.581584,208.254962 149.461604,208.254962 L166.125419,208.254962 C167.919984,208.254962 169.458182,209.707705 169.458182,211.587725 C169.372727,213.467746 167.919984,214.920488 166.125419,214.920488 Z" id="Shape" fill="#F7A605"></path>
                    <path d="M136.130552,214.920488 L119.466737,214.920488 C117.672172,214.920488 116.133974,213.467746 116.133974,211.587725 C116.133974,209.793161 117.586717,208.254962 119.466737,208.254962 L136.130552,208.254962 C137.925117,208.254962 139.463315,209.707705 139.463315,211.587725 C139.463315,213.467746 138.010572,214.920488 136.130552,214.920488 Z" id="Shape" fill="#F18813"></path>
                </g>
                <polygon id="Shape" fill="#63C1C5" points="100.837446 96.4792172 161.254458 280.977561 409.673488 280.977561 345.752802 96.4792172"></polygon>
                <g id="Group" transform="translate(437.531968, 122.201311)" fill="#F8B68F">
                    <path d="M11.3655765,31.0203329 C12.7328639,30.5076001 17.176548,28.456669 23.1584304,20.3384001 C28.5421245,13.0746858 35.2076506,-5.38369414 40.9331666,2.39275295 C40.3349783,12.2201311 40.9331666,23.7566186 40.9331666,23.7566186 C39.9931565,29.6530455 32.9003531,36.6603934 27.6021144,40.2495229 L9.99828912,49.2223464 C9.99828912,49.2223464 1.19637648,45.4623061 0.769099163,45.3768506 L1.45274286,41.2749884 C5.21278322,38.3695027 8.54554626,34.8658287 11.3655765,31.0203329 Z" id="Shape"></path>
                    <path d="M16.3219934,30.4221447 C16.3219934,30.4221447 16.8347261,30.4221447 17.7747362,30.1657783 C17.5183698,31.4476102 17.4329144,32.7294422 17.3474589,34.0112741 C14.954706,38.1131363 12.7328639,42.300454 10.4255664,46.4023162 C8.28917987,44.6932069 5.21278322,42.3859094 4.95641683,42.2149985 L14.783795,12.2201311 C14.783795,12.2201311 18.8002018,11.7928538 18.8856572,18.3729245 C18.8856572,24.9529951 16.3219934,30.4221447 16.3219934,30.4221447 Z" id="Shape"></path>
                </g>
                <polygon id="Shape" fill="#043C5E" points="129.465026 128.097738 136.814196 149.54706 255.255467 149.54706 249.444495 128.695927"></polygon>
                <polygon id="Shape" fill="#00666A" points="283.62668 128.268649 299.350485 177.576451 360.536597 218.680529 332.507205 128.268649"></polygon>
                <polygon id="Shape" fill="#01898C" points="137.156017 160.65627 141.086969 171.338202 259.52824 171.338202 253.717268 160.912636"></polygon>
                <polygon id="Shape" fill="#FFFFFF" points="144.761554 188.429295 148.77796 199.196683 267.219231 199.196683 261.40826 188.685661"></polygon>
                <polygon id="Shape" fill="#00666A" points="100.837446 96.4792172 108.10116 118.526727 353.016516 118.526727 345.752802 96.4792172"></polygon>
                <path d="M259.699151,204.922199 C259.699151,204.922199 293.368603,265.082845 341.907306,259.100963 C390.446009,253.11908 452.657585,174.072777 452.657585,174.072777 L439.839266,159.203527 L364.040271,202.785813 C352.503783,209.451339 337.890899,207.144041 328.918075,197.402119 L292.85587,158.348972 L259.699151,204.922199 Z" id="Shape" fill="url(#linearGradient-3)"></path>
                <g id="Group" transform="translate(186.292908, 39.309513)">
                    <g transform="translate(37.600404, 0.000000)" id="Shape">
                        <polygon fill="#F4A086" points="37.2585817 73.149876 39.9931565 99.9828912 11.2801211 101.093812 17.0056371 59.477002"></polygon>
                        <path d="M46.1459498,78.0208373 C49.4787128,77.9353819 52.5551095,77.4226491 54.1787633,76.1408172 C63.8352305,62.1261213 52.8114759,24.3548068 52.8114759,24.3548068 L37.4294926,17.8601917 L17.8601917,30.0803228 L16.7492707,55.3751397 C16.4929043,62.1261213 19.6547564,68.6207364 25.4657278,72.8080541 C31.7039766,76.3117281 38.8822355,78.1917483 46.1459498,78.0208373 Z" fill="#F8B68F"></path>
                        <path d="M20.9365883,44.3513851 C22.0475093,40.0786119 21.4493211,30.2512338 25.8075497,31.0203329 C28.9694018,31.5330657 39.8222456,31.960343 43.411375,31.960343 C52.1278322,31.960343 67.5952709,28.5421245 67.5952709,15.3819833 C67.5952709,8.80191265 61.1861112,3.07639665 57.1697045,1.3672874 C53.1532977,-0.256366388 48.7096137,-0.256366388 44.6077515,1.19637648 C35.0367397,4.52913952 22.3893312,11.8783093 17.3474589,10.8528437 C8.80191265,9.1437345 0.34182185,14.1001513 0.512732775,21.3638656 C0.598188238,29.0548573 4.70005044,40.6768002 8.46009079,48.1114254 C10.6819328,52.3841986 13.5874185,56.2296944 17.0910925,59.477002 L20.9365883,44.3513851 Z" fill="#212B53"></path>
                        <path d="M12.1346757,45.3768506 C14.1001513,43.6677414 17.6892808,44.0095632 20.2529446,46.0604943 C22.8166085,48.1968809 23.2438858,51.2732775 21.3638656,52.9823868 C19.39839,54.691496 15.8092606,54.3496742 13.2455967,52.2987431 C10.6819328,50.1623565 10.2546555,47.0859599 12.1346757,45.3768506 Z" fill="#F8B68F"></path>
                    </g>
                    <path d="M122.628589,240.984404 L122.628589,168.859994 C122.628589,137.156017 97.8465046,93.3173651 66.142528,92.2064441 C65.2025179,92.2064441 64.1770524,92.1209887 63.2370423,92.1209887 C58.5369919,92.1209887 54.0933078,92.4628105 49.9914456,93.1464542 C21.1074993,97.5901383 0.256366388,123.141322 0.256366388,152.281634 L0.256366388,240.984404 L122.628589,240.984404 Z" id="Shape" fill="url(#linearGradient-4)"></path>
                    <polygon id="Shape" fill="#FFFFFF" points="76.3117281 84.9427298 50.7605448 84.9427298 46.6586826 94.3428307 79.6444911 95.1973853"></polygon>
                </g>
                <path d="M206.03312,280.721195 L204.238556,149.54706 C204.238556,149.54706 182.789234,158.94716 172.620034,213.980478 C169.372727,231.84067 169.800004,262.519181 171.252747,280.721195 L206.03312,280.721195 Z" id="Shape" fill="url(#linearGradient-5)"></path>
                <path d="M207.229497,279.012085 L205.947665,182.789234 C205.09311,184.156522 204.238556,185.523809 203.469456,186.976552 L204.665833,279.012085 L207.229497,279.012085 Z" id="Shape" fill="#63C1C5"></path>
                <path d="M307.468754,218.936895 L308.323309,281.063016 L310.886973,281.063016 L310.117874,219.449628 C309.177864,219.278717 308.323309,219.107806 307.468754,218.936895 Z" id="Shape" fill="#63C1C5"></path>
                <path d="M245.000811,96.4792172 L234.746156,96.4792172 C232.182492,96.4792172 230.046105,94.3428307 230.046105,91.7791668 L230.046105,81.5245113 C230.046105,78.9608474 232.182492,76.8244609 234.746156,76.8244609 L245.000811,76.8244609 C247.564475,76.8244609 249.700862,78.9608474 249.700862,81.5245113 L249.700862,91.7791668 C249.786317,94.3428307 247.649931,96.4792172 245.000811,96.4792172 Z" id="Shape" fill="#01898C"></path>
                <path d="M261.750082,43.3259195 C264.570112,41.7022657 267.646509,40.5913447 270.722905,39.907701 L257.391853,39.907701 C245.513544,39.907701 235.942532,49.5641683 235.942532,61.3570221 L235.942532,81.6099668 L239.360751,81.6099668 L239.360751,61.3570221 C239.360751,51.358733 247.47902,43.3259195 257.391853,43.3259195 L261.750082,43.3259195 Z" id="Shape" fill="#01898C"></path>
                <path d="M276.1066,107.759338 L275.166589,104.512031 L281.319383,102.802921 C282.515759,102.4611 283.541225,101.606545 284.053958,100.410169 C284.56669,99.2137921 284.56669,97.9319601 283.968502,96.7355836 L281.74666,92.377355 L280.892105,83.6608979 L287.044899,95.2828408 C288.070364,97.3337719 288.15582,99.7265248 287.21581,101.862911 C286.2758,103.999298 284.481235,105.537496 282.259393,106.135685 L276.1066,107.759338 Z" id="Shape" fill="#01898C"></path>
                <path d="M277.217521,108.613893 L272.859292,109.724814 C271.235638,110.152091 269.611984,109.126626 269.184707,107.588427 C268.75743,105.964774 269.782895,104.34112 271.321094,103.913842 L275.679322,102.802921 C277.302976,102.375644 278.92663,103.40111 279.353907,104.939308 C279.781184,106.562962 278.841174,108.186616 277.217521,108.613893 Z" id="Shape" fill="#043C5E"></path>
                <path d="M305.417823,104.682942 L306.870566,104.170209 C326.268956,97.4192273 347.120089,96.3083063 367.287578,100.495624 C390.360553,105.28113 421.722708,109.297537 438.984711,100.666535 C450.777565,94.8555635 464.792261,63.6643196 461.972231,44.0950187 C459.835844,29.1403127 446.675703,18.1165581 431.635541,16.8347261 C408.818933,14.8692505 366.433024,13.672874 346.009168,28.456669 C317.296133,49.2223464 317.296133,85.7972844 317.296133,85.7972844 L305.417823,104.682942 Z" id="Shape" fill="#63C1C5"></path>
                <g id="Group" transform="translate(38.454958, 173.474589)">
                    <polygon id="Shape" fill="#F8B68F" points="23.5002522 25.8075497 29.3966791 37.0022153 22.902064 36.6603934 22.3893312 25.4657278"></polygon>
                    <polygon id="Shape" fill="#FFFFFF" points="14.1001513 20.8511329 19.6547564 20.8511329 21.8765984 56.3151498 12.0492202 56.3151498"></polygon>
                    <g transform="translate(2.563664, 123.055866)" id="Shape">
                        <path d="M1.53819833,1.88002018 C1.53819833,1.88002018 0.170910925,2.90548573 0.427277313,4.27277313 C0.683643701,5.64006053 1.02546555,8.80191265 1.02546555,8.80191265 L2.39275295,8.80191265 L2.30729749,5.81097146 C2.30729749,5.64006053 5.29823868,8.80191265 5.81097146,8.80191265 L13.1601412,8.80191265 C13.1601412,8.80191265 13.672874,6.83643701 9.31464542,6.15279331 C5.04187229,5.55460507 1.53819833,1.88002018 1.53819833,1.88002018 Z" fill="#043C5E"></path>
                        <path d="M4.70005044,0.512732775 L5.72551599,3.07639665 C5.98188238,3.76004035 6.40915969,4.35822859 7.09280339,4.7855059 C7.77644709,5.21278322 8.88736811,5.89642692 10.5110219,6.32370423 C8.54554626,8.03281348 5.29823868,6.23824877 3.50367397,4.95641683 C2.64911934,4.35822859 1.96547564,3.4182185 1.70910925,2.39275295 L1.28183194,0.427277313 L4.70005044,0.427277313 L4.70005044,0.512732775 Z" fill="#F8B68F"></path>
                    </g>
                    <g transform="translate(16.236538, 123.055866)" id="Shape">
                        <path d="M1.88002018,1.88002018 C1.88002018,1.88002018 0.512732775,2.90548573 0.769099163,4.27277313 C1.02546555,5.64006053 1.3672874,8.80191265 1.3672874,8.80191265 L2.7345748,8.80191265 L2.64911934,5.81097146 C2.64911934,5.64006053 5.64006053,8.80191265 6.15279331,8.80191265 L13.5019631,8.80191265 C13.5019631,8.80191265 14.0146959,6.83643701 9.65646727,6.15279331 C5.4691496,5.55460507 1.88002018,1.88002018 1.88002018,1.88002018 Z" fill="#043C5E"></path>
                        <path d="M5.04187229,0.512732775 L6.06733784,3.07639665 C6.32370423,3.76004035 6.75098154,4.35822859 7.43462524,4.7855059 C8.11826894,5.21278322 9.22918996,5.89642692 10.8528437,6.32370423 C8.88736811,8.03281348 5.64006053,6.23824877 3.84549582,4.95641683 C2.99094119,4.35822859 2.30729749,3.4182185 2.0509311,2.39275295 L1.62365379,0.427277313 L5.04187229,0.427277313 L5.04187229,0.512732775 Z" fill="#F8B68F"></path>
                    </g>
                    <path d="M9.91283366,56.3151498 C9.91283366,56.3151498 8.97282357,61.6133885 14.2710623,87.6773046 C9.99828912,101.264723 16.8347261,123.995876 16.8347261,123.995876 L21.8765984,123.995876 L25.2948169,56.3151498 L9.91283366,56.3151498 Z" id="Shape" fill="#212B53"></path>
                    <path d="M19.0565682,20.8511329 L20.8511329,63.920686 L26.7475598,61.3570221 C26.7475598,61.3570221 24.0984404,53.2387532 24.3548068,42.0440876 C23.4147967,33.9258186 28.0293917,38.1985918 22.3893312,22.5602421 C20.2529446,20.8511329 19.0565682,20.8511329 19.0565682,20.8511329 Z" id="Shape" fill="url(#linearGradient-6)"></path>
                    <path d="M19.8256673,16.4074488 L19.1420236,19.9965782 C18.8002018,21.620232 17.0056371,22.3893312 15.6383497,21.5347766 L13.2455967,19.9965782 L17.6038253,10.2546555 L19.8256673,16.4074488 Z" id="Shape" fill="#F4A086"></path>
                    <path d="M5.12732775,56.3151498 C5.12732775,56.3151498 -1.45274286,61.6133885 3.84549582,87.6773046 C-0.427277313,101.264723 3.33276304,123.995876 3.33276304,123.995876 L7.86190256,123.995876 L20.509311,56.3151498 L5.12732775,56.3151498 Z" id="Shape" fill="#043C5E"></path>
                    <path d="M14.1001513,17.176548 C14.1001513,17.176548 8.54554626,20.2529446 6.83643701,23.0729749 C5.21278322,25.7220942 4.61459498,31.7894321 4.44368405,37.0876708 C4.18731767,44.4368405 0.683643701,63.8352305 0.683643701,63.8352305 L15.5528942,63.8352305 L15.894716,21.7056875 L14.1001513,17.176548 Z" id="Shape" fill="url(#linearGradient-7)"></path>
                    <path d="M25.0384505,5.4691496 C21.7056875,4.61459498 18.4583799,8.03281348 18.4583799,8.03281348 L15.894716,21.620232 L12.0492202,15.6383497 C12.0492202,15.6383497 11.7928538,7.52008071 15.5528942,2.13638656 C18.2020135,-1.11092101 23.4147967,-0.170910925 25.9784606,2.99094119 C27.2602926,4.52913952 27.5166589,6.66552608 27.4312035,8.63100172 C27.2602926,11.2801211 26.4911934,26.4057379 26.4911934,26.4057379 L18.8002018,20.6802219 C18.8002018,20.6802219 18.9711127,19.1420236 19.7402119,16.3219934 C21.0220438,11.5364874 27.345748,6.06733784 25.0384505,5.4691496 Z" id="Shape" fill="#212B53"></path>
                    <path d="M17.4329144,7.86190256 C17.9456471,7.69099163 18.5438354,8.03281348 18.8856572,8.63100172 C19.1420236,9.22918996 19.0565682,9.91283366 18.5438354,10.0837446 C18.0311026,10.2546555 17.4329144,9.91283366 17.0910925,9.31464542 C16.8347261,8.71645718 17.0056371,8.11826894 17.4329144,7.86190256 Z" id="Shape" fill="#F8B68F"></path>
                    <path d="M21.1074993,17.0056371 C21.7056875,17.2620034 22.3038757,17.3474589 22.731153,17.176548 C25.6366388,15.0401614 26.7475598,6.58007062 26.7475598,6.58007062 L24.4402623,4.1018622 L19.8256673,5.12732775 L17.5183698,10.1692 C16.9201816,11.5364874 17.0056371,13.0746858 17.6892808,14.3565177 C18.5438354,15.6383497 19.7402119,16.4929043 21.1074993,17.0056371 Z" id="Shape" fill="#F8B68F"></path>
                    <path d="M25.8075497,5.29823868 C25.5511833,7.86190256 18.4583799,8.03281348 18.4583799,8.03281348 L18.1165581,4.52913952 L22.3038757,2.22184203 L25.5511833,4.18731767 C25.5511833,4.35822859 25.8930052,4.87096137 25.8075497,5.29823868 Z" id="Shape" fill="#212B53"></path>
                    <path d="M25.7220942,5.81097146 C25.4657278,6.75098154 26.4911934,8.46009079 26.4911934,8.46009079 L27.0893816,7.43462524 L27.0893816,6.58007062 L26.4911934,5.89642692 C26.4057379,5.81097146 25.8930052,4.87096137 25.7220942,5.81097146 Z" id="Shape" fill="#212B53"></path>
                    <path d="M8.37463533,23.0729749 C1.19637648,23.9275295 4.61459498,42.4713649 6.15279331,50.0769011 C6.49461516,51.9569212 8.46009079,53.0678423 10.2546555,52.5551095 C16.4929043,50.5896338 25.6366388,42.3859094 25.6366388,42.3859094 L24.1838959,40.5913447 L12.0492202,43.411375 C12.0492202,43.3259195 16.7492707,22.1329648 8.37463533,23.0729749 Z" id="Shape" fill="#F8B68F"></path>
                    <path d="M22.731153,36.1476607 L20.4238556,50.6750893 C20.3384001,51.1023666 20.6802219,51.4441885 21.1074993,51.4441885 L30.4221447,51.4441885 C30.7639665,51.4441885 31.0203329,51.1878221 31.1057884,50.8460002 L33.4130859,36.3185716 C33.4985413,35.8912943 33.1567195,35.5494724 32.7294422,35.5494724 L23.5002522,35.5494724 C23.0729749,35.5494724 22.8166085,35.8058388 22.731153,36.1476607 Z" id="Shape" fill="#FFFFFF"></path>
                    <path d="M33.071264,42.6422758 C33.1567195,42.129543 33.071264,41.7877212 32.9003531,40.7622556 C32.6439867,39.3949682 32.7294422,37.2585817 31.3621548,38.2840472 C29.9948674,39.907701 29.9094119,41.7022657 29.9094119,41.7022657 C29.6530455,42.6422758 30.2512338,44.0095632 30.7639665,44.7786624 L31.7039766,46.915049 C31.7039766,46.8295935 33.4130859,44.9495733 33.071264,42.6422758 Z" id="Shape" fill="#F8B68F"></path>
                    <circle id="Oval" fill="url(#linearGradient-8)" cx="27.6875699" cy="41.189533" r="1"></circle>
                </g>
                <polygon id="Shape" fill="#FFFFFF" points="114.083043 100.75199 118.27036 111.946656 192.10388 111.946656 187.147463 100.75199"></polygon>
                <g id="Group" transform="translate(342.676405, 173.474589)">
                    <path d="M39.6513346,13.7583295 C39.2240573,14.6983396 39.1386019,15.8092606 39.4804237,16.8347261 L39.9931565,20.7656774 L40.6768002,21.1929547 L43.1550086,22.2184203 C42.8986422,21.4493211 43.1550086,20.6802219 43.1550086,20.6802219 L44.2659296,16.5783597 C44.2659296,16.5783597 45.9750389,9.65646727 41.2749884,9.99828912 C41.2749884,4.35822859 39.7367901,5.29823868 39.7367901,5.29823868 L39.6513346,10.1692 L39.6513346,13.7583295 Z" id="Shape" fill="#F8B68F"></path>
                    <path d="M28.0293917,27.4312035 C28.0293917,27.4312035 31.2766993,39.907701 34.0967296,40.0786119 C36.9167598,40.3349783 39.7367901,20.3384001 39.7367901,20.3384001 L43.4968305,20.7656774 C43.4968305,20.7656774 44.9495733,49.4787128 36.4894825,49.9914456 C28.0293917,50.5041784 26.8330152,44.1804742 26.8330152,44.1804742 L28.0293917,27.4312035 Z" id="Shape" fill="#FFDB71"></path>
                    <path d="M27.6875699,61.4424776 L5.4691496,61.4424776 C5.4691496,61.4424776 5.4691496,45.2059397 5.4691496,27.6875699 C11.7928538,18.0311026 19.7402119,20.6802219 19.7402119,20.6802219 C19.7402119,20.6802219 26.9184707,20.8511329 28.0293917,27.4312035 C28.0293917,32.1312539 27.6875699,61.4424776 27.6875699,61.4424776 Z" id="Shape" fill="#F7A605"></path>
                    <path d="M17.176548,16.1510824 L16.8347261,20.9365883 L17.0056371,21.1074993 C18.5438354,22.5602421 21.0220438,22.6456976 22.6456976,21.1929547 L22.731153,17.6038253 L17.176548,16.1510824 Z" id="Shape" fill="#F4A086"></path>
                    <g transform="translate(10.254656, 0.000000)">
                        <path d="M5.12732775,6.23824877 L5.55460507,14.1001513 C6.32370423,14.1001513 6.83643701,14.8692505 6.66552608,15.6383497 C6.75098154,15.8092606 6.75098154,15.9801715 6.83643701,16.2365379 C8.20372441,17.176548 10.6819328,18.4583799 13.8437849,17.8601917 C18.8002018,16.9201816 15.8092606,7.26371432 15.8092606,7.26371432 L5.12732775,6.23824877 Z" id="Shape" fill="#F8B68F"></path>
                        <path d="M2.64911934,12.1346757 C2.64911934,11.5364874 1.79456471,10.340111 1.3672874,9.91283366 C-1.45274286,7.43462524 1.11092101,5.72551599 1.96547564,5.12732775 C2.99094119,4.52913952 2.7345748,2.64911934 4.01640674,1.70910925 C5.98188238,0.170910925 7.86190256,1.79456471 9.1437345,1.53819833 C10.4255664,1.28183194 11.1946656,-0.34182185 12.9892303,0.512732775 C14.783795,1.3672874 14.6128841,2.82003026 15.2110723,3.4182185 C15.8092606,4.01640674 16.8347261,2.39275295 18.6292908,4.27277313 C21.3638656,7.17825886 16.065627,8.46009079 16.065627,8.46009079 C16.065627,8.46009079 13.1601412,9.65646727 9.31464542,8.11826894 C8.80191265,7.94735802 8.11826894,8.03281348 7.86190256,8.46009079 C6.92189247,9.74192273 6.92189247,16.3219934 6.92189247,16.3219934 L5.64006053,15.2965278 C5.64006053,15.2110723 2.82003026,14.783795 2.64911934,12.1346757 Z" id="Shape" fill="#212B53"></path>
                        <circle id="Oval" fill="#F8B68F" transform="translate(6.730489, 12.297255) rotate(-22.266380) translate(-6.730489, -12.297255) " cx="6.73048932" cy="12.2972547" r="1.19633482"></circle>
                    </g>
                    <g transform="translate(17.091093, 121.346757)" id="Shape">
                        <path d="M5.55460507,3.76004035 C5.55460507,3.76004035 6.83643701,5.4691496 12.7328639,7.00734793 C14.0146959,7.34916978 15.4674387,7.60553617 15.4674387,9.74192273 C12.7328639,9.74192273 9.65646727,9.74192273 9.65646727,9.74192273 L3.67458489,8.71645718 L3.67458489,9.74192273 L0.427277313,9.74192273 C0.427277313,9.74192273 -0.427277313,4.44368405 1.45274286,3.84549582 C3.16185212,3.76004035 5.55460507,3.76004035 5.55460507,3.76004035 Z" fill="#212B53"></path>
                        <path d="M5.89642692,0 L5.55460507,3.76004035 C4.35822859,4.61459498 2.82003026,4.61459498 1.62365379,3.93095128 L1.3672874,3.76004035 L1.3672874,0 L5.89642692,0 Z" fill="#F8B68F"></path>
                    </g>
                    <g transform="translate(0.000000, 121.346757)" id="Shape">
                        <path d="M6.15279331,3.76004035 C6.15279331,3.76004035 7.43462524,5.4691496 13.3310522,7.00734793 C14.6128841,7.34916978 16.065627,7.60553617 16.065627,9.74192273 C13.3310522,9.74192273 10.2546555,9.74192273 10.2546555,9.74192273 L4.27277313,8.71645718 L4.27277313,9.74192273 L1.02546555,9.74192273 C1.02546555,9.74192273 0.170910925,4.44368405 2.0509311,3.84549582 C3.67458489,3.76004035 6.15279331,3.76004035 6.15279331,3.76004035 Z" fill="#212B53"></path>
                        <path d="M6.40915969,0 L6.06733784,3.76004035 C4.87096137,4.61459498 3.33276304,4.61459498 2.13638656,3.93095128 L1.88002018,3.76004035 L1.88002018,0 L6.40915969,0 Z" fill="#F8B68F"></path>
                    </g>
                    <path d="M5.4691496,27.6875699 C5.4691496,27.6875699 -1.19637648,43.0695531 7.34916978,50.9314557 C15.8092606,58.7933583 27.345748,57.4260709 27.345748,57.4260709 L27.345748,52.9823868 C27.345748,52.9823868 16.9201816,52.1278322 13.5874185,45.1204842 C10.2546555,38.1131363 14.954706,32.1312539 14.954706,32.1312539" id="Shape" fill="#F7A605"></path>
                    <path d="M26.6621043,56.8278826 L31.960343,56.9133381 C34.0967296,56.8278826 35.5494724,53.580575 35.8912943,51.1878221 C35.9767497,50.8460002 35.5494724,50.5041784 35.2076506,50.6750893 C33.4130859,51.2732775 28.7984909,52.9823868 27.5166589,53.6660305 L26.6621043,56.8278826 Z" id="Shape" fill="#F8B68F"></path>
                    <path d="M27.6875699,61.4424776 C34.353096,80.1572239 23.9275295,121.603123 23.9275295,121.603123 L18.0311026,121.603123 C18.0311026,121.603123 20.8511329,62.809765 13.1601412,61.4424776 C24.9529951,61.4424776 22.6456976,61.4424776 27.6875699,61.4424776 Z" id="Shape" fill="#00666A"></path>
                    <path d="M12.3910421,40.5058893 C12.4764975,41.9586321 12.8183194,43.4968305 13.5874185,45.1204842 C16.9201816,52.1278322 27.8584808,52.9823868 27.8584808,52.9823868 L27.8584808,57.4260709 C27.8584808,57.4260709 15.8092606,58.7079028 7.26371432,50.8460002 C4.18731767,48.02597 3.07639665,44.1804742 2.99094119,40.4204338 L12.3910421,40.4204338 L12.3910421,40.5058893 Z" id="Shape" fill="#FFDB71"></path>
                    <path d="M12.4764975,41.189533 C12.2201311,41.1040775 12.0492202,41.018622 11.7928538,40.8477111 C11.3655765,35.7203834 14.4419732,31.7894321 14.4419732,31.7894321 L14.954706,32.2167094 C14.954706,32.3021649 11.8783093,36.1476607 12.4764975,41.189533 Z" id="Shape" fill="#F18813"></path>
                    <path d="M40.6768002,14.3565177 C40.6768002,14.3565177 39.4804237,14.0146959 39.2240573,11.7928538 C39.0531464,9.57101181 37.9422254,10.2546555 37.9422254,10.2546555 C37.9422254,10.2546555 38.4549582,19.0565682 39.907701,19.39839 C41.4458993,19.6547564 40.6768002,14.3565177 40.6768002,14.3565177 Z" id="Shape" fill="#F8B68F"></path>
                    <path d="M21.1929547,61.4424776 C22.9875194,84.429997 8.37463533,121.603123 8.37463533,121.603123 L1.3672874,121.603123 C1.3672874,121.603123 6.15279331,97.8465046 6.23824877,75.4571735 C6.23824877,70.5862121 6.06733784,65.8861616 5.55460507,61.4424776 C10.340111,61.4424776 16.7492707,61.4424776 21.1929547,61.4424776 Z" id="Shape" fill="#01898C"></path>
                </g>
                <g id="Group" transform="translate(94.855563, 9.400101)">
                    <g id="Shape">
                        <path d="M51.358733,116.732162 L51.9569212,120.406747 C50.8460002,121.175846 49.3078019,121.261301 48.1968809,120.492202 L48.02597,120.406747 L47.0859599,116.732162 L51.358733,116.732162 Z" fill="#F8B68F"></path>
                        <path d="M22.2184203,32.4730758 C25.4657278,43.1550086 36.3185716,59.5624574 36.3185716,59.5624574 L27.7730253,56.0587834 L21.7056875,42.0440876 C21.620232,42.0440876 18.9711127,21.791143 22.2184203,32.4730758 Z" fill="#B0D9C8"></path>
                        <path d="M45.4623061,75.371718 L52.2132876,117.073984 L46.2314053,117.073984 C46.2314053,117.073984 32.7294422,79.5590357 31.2766993,68.535281 C31.2766993,62.2970322 44.9495733,68.535281 44.9495733,68.535281 L45.4623061,75.371718 Z" fill="#00666A"></path>
                        <g transform="translate(15.381983, 0.000000)">
                            <polygon fill="#F4A086" points="7.69099163 15.6383497 5.4691496 21.4493211 0.598188238 17.9456471 3.84549582 11.0237547"></polygon>
                            <path d="M9.57101181,16.5783597 C10.340111,16.7492707 11.0237547,16.7492707 11.451032,16.4929043 C14.2710623,13.8437849 13.5874185,4.7855059 13.5874185,4.7855059 L10.4255664,2.64911934 L5.4691496,4.44368405 L4.01640674,10.0837446 C3.67458489,11.6219429 4.01640674,13.1601412 5.12732775,14.4419732 C6.40915969,15.5528942 7.86190256,16.3219934 9.57101181,16.5783597 Z" fill="#F8B68F"></path>
                            <path d="M6.32370423,6.40915969 C6.75098154,5.4691496 7.86190256,5.04187229 8.71645718,5.4691496 C9.40010088,5.72551599 10.2546555,5.98188238 11.0237547,6.15279331 C12.9892303,6.58007062 16.5783597,6.49461516 17.176548,3.58912943 C17.7747362,0.598188238 13.9292404,0.854554626 13.9292404,0.854554626 L8.80191265,1.19637648 C7.26371432,1.28183194 5.81097146,1.02546555 4.35822859,0.427277313 C3.16185212,-0.0854554626 2.0509311,1.02546555 1.79456471,1.79456471 C1.19637648,3.50367397 1.79456471,6.32370423 2.30729749,8.11826894 C2.56366388,9.1437345 3.07639665,10.1692 3.76004035,11.1092101 L6.32370423,6.40915969 Z" fill="#212B53"></path>
                            <path d="M3.4182185,7.69099163 C3.93095128,7.43462524 4.70005044,7.60553617 5.21278322,8.20372441 C5.64006053,8.80191265 5.64006053,9.48555635 5.12732775,9.8273782 C4.61459498,10.0837446 3.84549582,9.91283366 3.33276304,9.31464542 C2.90548573,8.71645718 2.90548573,7.94735802 3.4182185,7.69099163 Z" fill="#F8B68F"></path>
                        </g>
                        <g transform="translate(23.927530, 113.655765)">
                            <path d="M28.2003026,6.32370423 C28.2003026,6.32370423 28.2003026,10.1692 35.9767497,12.561953 C37.6004035,13.0746858 37.0876708,13.5019631 37.3440371,14.1856068 C34.7803733,14.1856068 28.3712136,14.1856068 28.3712136,14.1856068 L24.8675396,10.2546555 L23.7566186,11.1946656 L21.1929547,8.71645718 C21.1929547,8.71645718 21.620232,5.12732775 23.5857077,5.12732775 C25.2093615,5.55460507 28.2003026,6.32370423 28.2003026,6.32370423 Z" fill="#212B53"></path>
                            <path d="M6.06733784,1.96547564 L4.61459498,5.29823868 C3.33276304,5.64006053 1.88002018,5.21278322 0.940010088,4.18731767 L0.769099163,4.01640674 L1.96547564,0.598188238 L6.06733784,1.96547564 Z" fill="#F8B68F"></path>
                        </g>
                        <path d="M21.8765984,19.8256673 C21.8765984,19.8256673 22.4747867,18.8856572 17.0056371,16.065627 C8.71645718,24.3548068 5.98188238,56.0587834 5.98188238,56.0587834 C5.98188238,56.0587834 25.3802724,56.0587834 27.6875699,56.0587834 C28.456669,37.9422254 21.8765984,19.8256673 21.8765984,19.8256673 Z" fill="#FFD247"></path>
                        <path d="M43.3259195,55.2042288 C43.411375,54.7769515 43.2404641,54.3496742 42.8986422,54.1787633 L39.3949682,52.1278322 C38.5404136,51.6150994 37.5149481,51.4441885 36.4894825,51.7005549 L32.6439867,51.8714658 L32.1312539,52.469654 L31.3621548,55.8878725 C32.1312539,55.7169616 32.5585312,55.5460507 32.5585312,55.5460507 L34.9512842,55.6315061 C34.9512842,55.6315061 39.5658792,59.9042793 41.7877212,56.2296944 C41.8731767,60.1606457 43.0695531,59.9042793 43.0695531,59.9042793 L43.3259195,55.2042288 Z" fill="#F8B68F"></path>
                        <path d="M5.98188238,56.0587834 L5.64006053,58.7079028 C5.64006053,58.7079028 5.64006053,58.7933583 5.64006053,58.7933583 C5.04187229,63.920686 8.46009079,68.7061919 13.4165076,70.0734793 C13.4165076,70.0734793 23.2438858,73.3207869 35.7203834,74.0044306 C27.5166589,84.5154525 25.2948169,113.997587 25.2948169,113.997587 L30.5930556,115.877607 L50.9314557,67.42436 C52.2132876,64.3479633 50.4187229,60.8442894 47.0859599,60.0751902 L27.6875699,55.973328 L5.98188238,55.973328 L5.98188238,56.0587834 Z" fill="#01898C"></path>
                        <path d="M19.5693009,30.1657783 C19.5693009,30.1657783 15.5528942,33.8403632 13.1601412,37.685859 C12.4764975,38.7113245 12.561953,40.0786119 13.4165076,41.018622 C17.9456471,46.2314053 34.0112741,51.1878221 34.0112741,51.1878221 L32.9858086,57.084249 C32.9858086,57.084249 10.1692,52.5551095 2.0509311,44.522296 C-6.23824877,36.2331161 15.2110723,18.8002018 15.2110723,18.8002018" fill="#FFD247"></path>
                        <g transform="translate(5.981882, 29.909412)" fill="#F7A605">
                            <path d="M7.43462524,7.94735802 C6.83643701,8.88736811 6.92189247,10.0837446 7.69099163,10.9382992 C9.74192273,13.3310522 15.2110723,15.8092606 20.0820337,17.6892808 C20.0820337,17.9456471 20.0820337,18.0311026 20.0820337,18.3729245 C15.0401614,16.4929043 9.48555635,14.0146959 7.26371432,11.3655765 C6.32370423,10.340111 6.23824877,8.80191265 7.00734793,7.60553617 C9.40010088,3.84549582 13.4165076,0.0854554626 13.5019631,0.0854554626 L13.9292404,0.598188238 C13.7583295,0.512732775 9.74192273,4.18731767 7.43462524,7.94735802 Z"></path>
                            <path d="M0.854554626,17.8601917 C9.65646727,22.5602421 22.4747867,25.9784606 27.0893816,26.9184707 C27.0039262,27.1748371 27.0039262,27.4312035 26.9184707,27.5166589 C22.4747867,26.5766489 9.74192273,23.3293413 0.769099163,18.5438354 C0.769099163,18.287469 0.769099163,18.0311026 0.854554626,17.8601917 Z"></path>
                        </g>
                        <polygon fill="#63C1C5" points="51.8714658 62.2970322 58.6224473 38.1131363 57.3406154 37.7713145 50.9314557 60.7588339 31.5330657 57.4260709 31.2766993 58.7079028"></polygon>
                    </g>
                    <path d="M28.8839464,118.184905 C28.8839464,118.184905 28.5421245,122.115856 36.3185716,124.423154 C37.9422254,124.935886 37.4294926,125.363164 37.685859,126.046807 C35.1221951,126.046807 28.7130354,126.046807 28.7130354,126.046807 L25.2093615,122.115856 L24.0984404,123.055866 L21.5347766,120.577658 C21.5347766,120.577658 22.731153,116.988528 24.6111732,116.988528 C26.3202825,117.501261 28.8839464,118.184905 28.8839464,118.184905 Z" id="Shape" fill="#212B53"></path>
                </g>
                <g id="Group" transform="translate(405.058893, 170.910925)">
                    <g transform="translate(41.018622, 90.582790)" id="Shape">
                        <path d="M16.4929043,35.464017 C16.4929043,35.464017 17.8601917,36.2331161 17.8601917,37.4294926 C17.8601917,38.7113245 18.0311026,41.5313548 18.0311026,41.5313548 L16.8347261,41.7877212 L16.4074488,39.1386019 C16.4074488,38.9676909 14.1856068,41.9586321 12.7328639,43.411375 L7.26371432,43.4968305 C7.26371432,43.4968305 6.49461516,41.7877212 10.2546555,40.5058893 C13.9292404,39.3095128 16.4929043,35.464017 16.4929043,35.464017 Z" fill="#00666A"></path>
                        <path d="M12.0492202,13.672874 C12.0492202,12.7328639 11.8783093,11.2801211 11.7073984,10.340111 C11.1092101,7.17825886 9.74192273,4.70005044 8.97282357,3.50367397 C7.60553617,2.99094119 6.32370423,2.39275295 4.95641683,1.88002018 C3.50367397,1.28183194 1.96547564,0.940010088 0.0854554626,0.512732775 C0.170910925,0.683643701 0.256366388,0.854554626 0.256366388,1.02546555 C8.28917987,22.1329648 12.7328639,31.7039766 13.4165076,34.0112741 C13.5019631,34.353096 13.5874185,34.6949178 13.5874185,35.0367397 C13.5019631,36.1476607 12.9892303,38.4549582 9.74192273,40.6768002 C13.1601412,41.5313548 16.3219934,35.464017 16.3219934,35.464017 C16.3219934,35.464017 12.2201311,20.9365883 12.0492202,13.672874 Z" fill="#FCCD98"></path>
                    </g>
                    <polygon id="Shape" fill="#F4A086" points="36.574938 18.8856572 36.9167598 24.6111732 42.5568204 23.5002522 41.8731767 15.6383497"></polygon>
                    <path d="M35.293106,18.9711127 C34.4385514,18.9711127 33.7549077,18.8002018 33.3276304,18.4583799 C30.9348775,14.6983396 33.6694523,4.52913952 33.6694523,4.52913952 L42.2149985,6.06733784 L42.4713649,12.9037748 C42.5568204,14.6983396 41.7877212,16.4929043 40.3349783,17.6038253 C38.79678,18.4583799 37.0876708,18.9711127 35.293106,18.9711127 Z" id="Shape" fill="#F8B68F"></path>
                    <path d="M40.7622556,128.097738 C40.7622556,128.097738 41.9586321,129.037748 41.7022657,130.234125 C41.4458993,131.430501 41.189533,134.165076 41.189533,134.165076 L39.9931565,134.165076 L39.9931565,131.601412 C39.9931565,131.430501 37.4294926,134.165076 36.9167598,134.165076 L30.5076001,134.165076 C30.5076001,134.165076 30.0803228,132.455967 33.8403632,131.857779 C37.685859,131.259591 40.7622556,128.097738 40.7622556,128.097738 Z" id="Shape" fill="#00666A"></path>
                    <path d="M44.0950187,106.306595 C44.4368405,105.452041 44.7786624,103.999298 44.9495733,103.059288 C45.4623061,99.8974358 45.5477616,95.3682962 45.2059397,93.9155534 C44.0950187,92.9755433 42.7277313,93.659187 41.6168103,92.7191769 C40.5058893,91.6937113 39.1386019,90.8391567 37.5149481,89.7282357 C37.5149481,89.8991466 37.5149481,90.155513 37.5149481,90.3264239 C37.685859,112.886666 38.5404136,123.483143 38.4549582,125.790441 C38.4549582,126.132263 37.3440371,130.832313 33.5839968,131.772323 C36.4894825,133.737799 40.8477111,128.012283 40.8477111,128.012283 C40.8477111,128.012283 41.7022657,113.143032 44.0950187,106.306595 Z" id="Shape" fill="#F8B68F"></path>
                    <path d="M36.9167598,23.6711631 L31.5330657,32.4730758 C30.849422,33.8403632 30.6785111,35.464017 31.0203329,36.9167598 L34.4385514,51.9569212 C34.6094623,52.8114759 34.7803733,53.751486 34.7803733,54.6060406 L35.6349279,93.9155534 L52.8114759,93.9155534 C52.8114759,93.9155534 50.5896338,86.1391063 49.5641683,76.1408172 C48.4532473,66.142528 51.7005549,61.7842994 50.7605448,57.3406154 C50.247812,54.7769515 48.7096137,51.4441885 46.4877716,48.7950691 C45.3768506,47.3423263 44.7786624,45.633217 44.6932069,43.7531968 C44.522296,36.3185716 52.2987431,15.7238051 44.8641179,20.7656774 C37.4294926,25.8075497 36.9167598,23.6711631 36.9167598,23.6711631 Z" id="Shape" fill="#01898C"></path>
                    <path d="M36.574938,45.8895834 L36.1476607,47.3423263 C35.8912943,48.1114254 35.6349279,48.4532473 34.9512842,49.4787128 C33.071264,52.6405649 26.6621043,60.417012 26.6621043,60.417012 L21.5347766,63.3224978 C21.5347766,63.3224978 21.620232,64.0915969 22.8166085,63.8352305 C24.012985,63.6643196 24.8675396,62.9806759 24.8675396,62.9806759 C24.8675396,62.9806759 25.123906,63.8352305 24.012985,65.5443398 C23.2438858,66.8261717 20.6802219,68.9625583 22.3893312,69.3898356 C24.012985,68.7061919 25.9784606,67.42436 25.9784606,67.42436 C26.9184707,66.9116272 27.5166589,66.0570726 27.6875699,65.031607 L28.1148472,62.2970322 L39.0531464,53.3242086 C40.2495229,52.2987431 41.189533,51.0169112 41.7022657,49.4787128 L41.7022657,49.3932574 L36.574938,45.8895834 Z" id="Shape" fill="#F8B68F"></path>
                    <path d="M6.83643701,37.0022153 C6.58007062,37.0022153 5.72551599,37.0022153 4.18731767,36.0622052 C2.82003026,35.2076506 0.512732775,32.6439867 0.0854554626,34.353096 C0.769099163,35.9767497 1.45274286,37.9422254 1.45274286,37.9422254 C1.96547564,38.8822355 3.58912943,39.5658792 4.7855059,39.7367901 L8.28917987,39.907701 C8.28917987,39.907701 9.57101181,38.6258691 9.65646727,38.5404136 L9.31464542,37.8567699 C8.28917987,37.7713145 7.52008071,37.4294926 6.83643701,37.0022153 Z" id="Shape" fill="#F8B68F"></path>
                    <polygon id="Shape" fill="#00666A" points="41.9586321 49.8205347 36.3185716 46.0604943 38.4549582 30.9348775 38.9676909 31.0203329 36.8313044 45.8041279 41.6168103 48.9659801 45.1204842 37.0022153 45.633217 37.1731262"></polygon>
                    <path d="M39.6513346,8.54554626 C38.0276808,9.48555635 36.3185716,9.65646727 35.0367397,9.65646727 C33.3276304,9.57101181 31.1912438,8.20372441 30.5076001,6.66552608 C29.9094119,5.38369414 29.738501,4.01640674 31.7894321,2.47820841 C33.1567195,1.45274286 34.8658287,2.13638656 35.5494724,2.7345748 C36.0622052,3.24730758 36.9167598,3.24730758 37.4294926,2.82003026 C38.4549582,1.96547564 40.4204338,0.769099163 43.2404641,0.769099163 C46.2314053,0.769099163 46.1459498,3.67458489 45.7186725,5.72551599 C45.4623061,7.00734793 45.9750389,8.28917987 47.0859599,8.97282357 C48.8805246,10.0837446 51.1023666,11.8783093 50.6750893,13.672874 C50.3332675,15.1256169 49.4787128,16.4074488 48.7096137,17.4329144 C47.9405145,18.3729245 47.9405145,19.7402119 48.7096137,20.6802219 C49.8205347,22.1329648 51.1023666,24.2693514 50.6750893,25.7220942 C50.3332675,27.1748371 49.2223464,29.0548573 48.3677918,30.3366892 C47.7696036,31.2766993 47.7696036,32.4730758 48.3677918,33.4130859 C48.8805246,34.182185 49.2223464,35.1221951 48.9659801,36.3185716 C48.7950691,37.1731262 48.3677918,37.9422254 47.855059,38.6258691 C47.0859599,39.8222456 45.2913952,39.6513346 44.6932069,38.3695027 C42.7277313,34.4385514 39.3095128,26.4057379 40.5058893,20.2529446 C41.1040775,17.176548 41.9586321,11.7073984 41.9586321,11.7073984 C41.9586321,11.7073984 42.7277313,7.26371432 39.6513346,8.54554626 Z" id="Shape" fill="#212B53"></path>
                    <path d="M35.2076506,41.8731767 L28.62758,45.2913952 C27.7730253,45.7186725 26.8330152,45.8041279 25.9784606,45.5477616 L7.94735802,39.8222456 L7.94735802,37.5149481 L25.5511833,39.6513346 L31.0203329,36.7458489 L35.2076506,41.8731767 Z" id="Shape" fill="#F8B68F"></path>
                    <path d="M42.9840977,10.1692 C42.4713649,9.74192273 41.6168103,9.8273782 41.018622,10.340111 C40.4204338,10.9382992 40.2495229,11.7073984 40.7622556,12.2201311 C41.2749884,12.7328639 42.129543,12.561953 42.7277313,12.0492202 C43.3259195,11.451032 43.4968305,10.5964774 42.9840977,10.1692 Z" id="Shape" fill="#F8B68F"></path>
                    <path d="M36.574938,41.189533 L34.7803733,29.9948674 L27.0039262,38.9676909 L29.1403127,45.9750389 L36.574938,42.129543 C36.3185716,41.189533 36.574938,42.129543 36.574938,41.189533 Z" id="Shape" fill="#01898C"></path>
                    <path d="M33.3276304,47.1714153 C33.4985413,47.0005044 33.4985413,47.0005044 33.7549077,46.915049 L31.2766993,36.8313044 C30.9348775,35.3785615 31.1057884,33.9258186 31.7039766,32.5585312 L37.0022153,23.8420741 C36.8313044,23.7566186 36.9167598,23.7566186 36.8313044,23.5857077 C36.8313044,23.5857077 36.574938,23.5002522 36.574938,23.5002522 L31.1912438,32.2167094 C30.5076001,33.6694523 30.3366892,35.3785615 30.6785111,36.9167598" id="Shape" fill="#63C1C5"></path>
                    <path d="M5.89642692,37.2585817 C5.89642692,37.2585817 5.81097146,37.2585817 5.64006053,37.3440371 C5.72551599,37.5149481 5.89642692,37.7713145 5.98188238,37.9422254 C6.66552608,38.4549582 7.26371432,38.9676909 7.94735802,39.4804237 C8.20372441,39.0531464 8.54554626,38.4549582 8.63100172,38.3695027 L5.12732775,34.0112741 C5.12732775,34.0112741 4.44368405,34.2676405 4.7855059,35.3785615 C5.12732775,36.4894825 5.89642692,37.2585817 5.89642692,37.2585817 Z" id="Shape" fill="#F8B68F"></path>
                </g>
                <g id="Group" transform="translate(94.855563, 171.765480)">
                    <g transform="translate(22.218420, 124.764975)" id="Shape">
                        <path d="M4.27277313,3.07639665 C4.27277313,3.07639665 5.21278322,4.35822859 9.57101181,5.4691496 C10.5110219,5.72551599 11.5364874,5.89642692 11.5364874,7.43462524 C9.48555635,7.43462524 7.26371432,7.43462524 7.26371432,7.43462524 L2.90548573,6.66552608 L2.90548573,7.43462524 L0.512732775,7.43462524 C0.512732775,7.43462524 -0.170910925,3.58912943 1.19637648,3.07639665 C2.47820841,3.07639665 4.27277313,3.07639665 4.27277313,3.07639665 Z" fill="#212B53"></path>
                        <path d="M4.44368405,0.256366388 L4.18731767,3.07639665 C3.33276304,3.67458489 2.22184203,3.67458489 1.28183194,3.16185212 L1.11092101,3.07639665 L1.11092101,0.256366388 L4.44368405,0.256366388 Z" fill="#F8B68F"></path>
                    </g>
                    <g transform="translate(0.000000, 125.619530)" id="Shape">
                        <path d="M4.44368405,2.7345748 C4.44368405,2.7345748 5.38369414,4.01640674 9.74192273,5.12732775 C10.6819328,5.38369414 11.7073984,5.55460507 11.7073984,7.09280339 C9.65646727,7.09280339 7.43462524,7.09280339 7.43462524,7.09280339 L3.07639665,6.32370423 L3.07639665,7.09280339 L0.683643701,7.09280339 C0.683643701,7.09280339 -2.26485497e-14,3.24730758 1.3672874,2.7345748 C2.7345748,2.7345748 4.44368405,2.7345748 4.44368405,2.7345748 Z" fill="#212B53"></path>
                        <path d="M4.70005044,0 L4.44368405,2.82003026 C3.58912943,3.4182185 2.47820841,3.4182185 1.53819833,2.90548573 L1.3672874,2.82003026 L1.3672874,0 L4.70005044,0 Z" fill="#F8B68F"></path>
                    </g>
                    <path d="M28.456669,56.7424272 L27.4312035,126.55954 L22.3038757,126.55954 C22.3038757,126.55954 14.5274286,70.1589348 16.2365379,56.7424272 C17.8601917,43.3259195 28.456669,56.7424272 28.456669,56.7424272 Z" id="Shape" fill="#212B53"></path>
                    <path d="M23.0729749,56.7424272 C23.0729749,56.7424272 21.2784102,78.1917483 17.2620034,90.0700576 C13.1601412,101.948367 5.81097146,126.55954 5.81097146,126.55954 L0.512732775,126.55954 C0.512732775,126.55954 9.31464542,75.0298961 7.26371432,56.7424272 L23.0729749,56.7424272 Z" id="Shape" fill="#11375B"></path>
                    <path d="M27.6021144,21.1929547 C27.6021144,21.1929547 33.8403632,35.8058388 35.464017,35.8058388 C36.7458489,35.8058388 34.9512842,23.8420741 34.9512842,23.8420741 L40.1640674,23.8420741 C40.1640674,23.8420741 46.744138,44.2659296 41.5313548,48.02597 C36.3185716,51.7860103 24.7820841,37.4294926 24.7820841,37.4294926 L27.6021144,21.1929547 Z" id="Shape" fill="#00666A"></path>
                    <path d="M8.97282357,58.5369919 L10.8528437,63.2370423 C11.7928538,65.1170625 15.1256169,65.1170625 17.3474589,64.5188742 C17.6892808,64.4334188 17.7747362,64.0061415 17.6038253,63.7497751 C16.4074488,62.3824877 13.1601412,58.9642692 12.1346757,58.19517 L8.97282357,58.5369919 Z" id="Shape" fill="#F8B68F"></path>
                    <path d="M24.8675396,18.2020135 C24.8675396,18.2020135 28.1148472,20.4238556 28.1148472,22.9875194 C28.1148472,25.5511833 28.1148472,56.7424272 28.1148472,56.7424272 L8.88736811,56.7424272 L8.88736811,25.123906 C8.88736811,25.123906 9.31464542,18.1165581 16.1510824,18.1165581 C23.0729749,18.1165581 24.8675396,18.2020135 24.8675396,18.2020135 Z" id="Shape" fill="#00666A"></path>
                    <polygon id="Shape" fill="#01898C" points="27.7730253 56.7424272 27.7730253 26.4057379 28.456669 26.4057379 28.456669 56.7424272"></polygon>
                    <path d="M17.8601917,10.5964774 L17.8601917,18.5438354 C17.8601917,18.5438354 19.2274791,20.3384001 21.620232,20.3384001 C24.012985,20.3384001 24.012985,18.6292908 24.012985,18.6292908 L24.012985,13.5019631 L20.509311,12.561953 L17.8601917,10.5964774 Z" id="Shape" fill="#F4A086"></path>
                    <path d="M24.2693514,15.1256169 C25.0384505,15.1256169 25.7220942,14.954706 26.0639161,14.6983396 C28.2003026,11.2801211 25.8075497,2.13638656 25.8075497,2.13638656 L18.1165581,3.50367397 L17.8601917,9.65646727 C17.7747362,11.2801211 18.5438354,12.8183194 19.8256673,13.8437849 C21.1074993,14.6983396 22.731153,15.1256169 24.2693514,15.1256169 Z" id="Shape" fill="#F8B68F"></path>
                    <path d="M21.7056875,3.67458489 C21.7056875,3.67458489 24.2693514,4.18731767 26.9184707,3.67458489 C29.6530455,3.16185212 27.8584808,0.256366388 27.8584808,0.256366388 C27.8584808,0.256366388 25.8930052,1.19637648 22.3038757,0.683643701 C19.9111228,0.34182185 19.2274791,-0.170910925 17.7747362,0.683643701 C15.7238051,1.79456471 16.2365379,5.55460507 16.2365379,5.55460507 L17.3474589,13.5019631 L17.7747362,13.5019631 C17.7747362,13.5019631 17.8601917,8.80191265 17.8601917,7.17825886 C18.287469,6.40915969 18.8002018,6.40915969 19.1420236,6.66552608 C19.5693009,6.83643701 19.7402119,7.34916978 19.7402119,7.77644709 L19.7402119,16.065627 C19.7402119,16.065627 25.0384505,18.3729245 26.3202825,17.9456471 C27.6875699,17.5183698 26.7475598,11.3655765 26.7475598,11.3655765 C26.7475598,11.3655765 25.2093615,10.6819328 24.012985,12.0492202 C22.8166085,13.4165076 21.3638656,11.9637648 21.3638656,11.9637648 L21.7056875,3.67458489 Z" id="Shape" fill="#212B53"></path>
                    <path d="M39.3095128,23.8420741 L39.1386019,22.8166085 C38.7113245,20.5947665 36.574938,17.7747362 34.4385514,17.0910925 L32.2167094,17.0910925 L32.9003531,21.8765984 L36.0622052,23.8420741 L39.3095128,23.8420741 Z" id="Shape" fill="#F8B68F"></path>
                    <path d="M18.5438354,6.32370423 C19.1420236,6.23824877 19.7402119,6.83643701 19.8256673,7.60553617 C19.9111228,8.37463533 19.5693009,8.97282357 18.9711127,9.05827903 C18.3729245,9.1437345 17.7747362,8.54554626 17.6892808,7.77644709 C17.6038253,7.00734793 17.9456471,6.40915969 18.5438354,6.32370423 Z" id="Shape" fill="#F8B68F"></path>
                    <path d="M33.7549077,21.3638656 L38.1131363,23.8420741 C38.1131363,23.8420741 35.3785615,23.8420741 35.3785615,23.8420741 L30.7639665,19.9965782 C30.7639665,19.9965782 31.1057884,19.3129345 32.1312539,19.9111228 C33.1567195,20.509311 33.7549077,21.3638656 33.7549077,21.3638656 Z" id="Shape" fill="#F8B68F"></path>
                    <path d="M10.9382992,20.2529446 C10.9382992,20.2529446 0.0854554626,32.3021649 0.0854554626,39.5658792 C0.0854554626,46.8295935 8.88736811,59.477002 8.88736811,59.477002 L13.2455967,58.19517 C13.2455967,58.19517 9.31464542,42.4713649 9.31464542,38.2840472 C9.31464542,34.0967296 17.3474589,27.9439363 17.3474589,27.9439363" id="Shape" fill="#00666A"></path>
                    <path d="M9.65646727,38.1985918 C9.65646727,41.7877212 12.8183194,55.0333179 13.5874185,58.1097146 C13.3310522,58.19517 13.2455967,58.19517 12.9037748,58.2806255 C11.9637648,54.5205851 8.97282357,41.7877212 8.97282357,38.2840472 C8.97282357,34.0112741 16.8347261,27.9439363 17.176548,27.6875699 L17.6038253,28.2003026 C17.5183698,28.2003026 9.65646727,34.2676405 9.65646727,38.1985918 Z" id="Shape" fill="#01898C"></path>
                    <g transform="translate(27.345748, 3.418219)">
                        <path d="M3.50367397,10.0837446 C3.50367397,10.0837446 2.64911934,14.783795 5.4691496,18.4583799 C5.64006053,18.7147463 5.98188238,18.8856572 6.23824877,18.8856572 C6.92189247,18.9711127 7.34916978,18.7147463 7.77644709,18.6292908 C8.28917987,18.4583799 8.54554626,18.2020135 8.71645718,17.9456471 C8.80191265,17.7747362 8.80191265,17.5183698 8.63100172,17.3474589 C8.03281348,16.4929043 6.23824877,13.5019631 7.09280339,10.8528437 C5.55460507,9.65646727 3.50367397,10.0837446 3.50367397,10.0837446 Z" id="Shape" fill="#F59C42"></path>
                        <path d="M8.20372441,18.4583799 C8.54554626,18.287469 8.63100172,18.2020135 8.71645718,17.9456471 C8.80191265,17.7747362 8.80191265,17.5183698 8.63100172,17.3474589 C8.03281348,16.4929043 6.23824877,13.5019631 7.09280339,10.8528437 C6.58007062,10.4255664 5.98188238,10.1692 5.38369414,10.0837446 C5.29823868,12.9892303 5.89642692,14.954706 8.20372441,18.4583799 Z" id="Shape" fill="#FAB746"></path>
                        <g transform="translate(5.127328, 11.963765)">
                            <g>
                                <ellipse id="Oval" fill="#F59C42" transform="translate(1.431610, 1.785002) rotate(-11.607719) translate(-1.431610, -1.785002) " cx="1.43160973" cy="1.78500225" rx="1" ry="1.19631767"></ellipse>
                                <polygon id="Shape" fill="#F59C42" points="1.11092101 0.598188238 1.45274286 0.598188238 1.3672874 0.683643701 1.19637648 0.769099163"></polygon>
                                <polygon id="Shape" fill="#E8375E" points="1.62365379 3.07639665 1.96547564 2.99094119 1.53819833 2.90548573"></polygon>
                            </g>
                            <ellipse id="Oval" fill="#FFD247" transform="translate(1.634122, 1.807614) rotate(-11.600954) translate(-1.634122, -1.807614) " cx="1.63412208" cy="1.80761376" rx="1" ry="1.19641079"></ellipse>
                        </g>
                        <path d="M2.30729749,6.06733784 L1.79456471,6.06733784 C0.769099163,6.06733784 0,6.83643701 0,7.77644709 L0,9.1437345 C0,10.0837446 0.769099163,10.8528437 1.79456471,10.8528437 L2.30729749,10.8528437 L2.30729749,6.06733784 Z" id="Shape" fill="#FFD247"></path>
                        <ellipse id="Oval" fill="#212B53" cx="16.1510824" cy="7.43462524" rx="1.88002018" ry="6.66552608"></ellipse>
                        <polygon id="Shape" fill="#FFFFFF" points="14.1856068 4.95641683 15.7238051 5.98188238 15.7238051 8.11826894 14.1856068 9.48555635 13.5874185 6.75098154"></polygon>
                        <path d="M14.2710623,7.43462524 C14.2710623,4.35822859 14.8692505,1.70910925 15.7238051,0.940010088 C15.7238051,0.940010088 15.7238051,0.940010088 15.7238051,0.940010088 C9.48555635,5.4691496 2.0509311,6.06733784 2.0509311,6.06733784 L2.0509311,10.7673883 C2.0509311,10.7673883 11.9637648,10.1692 15.7238051,13.8437849 C15.7238051,13.8437849 15.7238051,13.8437849 15.7238051,13.8437849 C14.8692505,13.1601412 14.2710623,10.5110219 14.2710623,7.43462524 Z" id="Shape" fill="#F7A605"></path>
                        <ellipse id="Oval" fill="#FFD247" cx="15.7238051" cy="7.00734793" rx="1" ry="1.11092101"></ellipse>
                    </g>
                    <path d="M36.8313044,20.4238556 C36.6603934,20.509311 36.1476607,20.8511329 34.4385514,20.8511329 C33.1567195,20.8511329 32.6439867,19.3129345 32.3876203,18.4583799 C32.3021649,18.2020135 32.2167094,17.7747362 32.6439867,17.5183698 L34.6949178,17.2620034 L36.8313044,20.4238556 Z" id="Shape" fill="#F8B68F"></path>
                </g>
                <g id="Group" transform="translate(157.238051, 0.000000)">
                    <g transform="translate(105.964774, 0.000000)" id="Shape">
                        <polygon fill="url(#linearGradient-9)" points="51.2732775 14.954706 28.8839464 2.64911934 17.5183698 0.34182185 8.80191265 1.62365379"></polygon>
                        <polyline fill="#B0D9C8" points="51.2732775 14.954706 9.40010088 4.18731767 8.80191265 1.62365379"></polyline>
                        <polygon fill="#63C1C5" points="8.20372441 11.3655765 8.20372441 11.451032 9.99828912 18.0311026 51.1878221 14.954706"></polygon>
                        <polygon fill="url(#linearGradient-10)" points="0.170910925 7.60553617 6.15279331 2.7345748 51.0169112 14.954706 12.3910421 13.7583295"></polygon>
                    </g>
                    <g transform="translate(0.000000, 1.709109)" fill="#63C1C5" id="Shape">
                        <path d="M11.8783093,88.8736811 C13.2455967,88.3609483 14.6128841,87.7627601 15.894716,87.1645718 C16.2365379,86.9936609 16.5783597,87.1645718 16.7492707,87.4209382 C16.9201816,87.6773046 16.7492707,88.1045819 16.4929043,88.2754928 C15.1256169,88.9591365 13.7583295,89.5573248 12.3055866,90.0700576 C11.7928538,90.2409685 11.2801211,90.4118794 10.7673883,90.5827903 C10.5964774,90.6682458 10.340111,90.5827903 10.2546555,90.4973349 C10.1692,90.4118794 10.0837446,90.3264239 9.99828912,90.155513 C9.91283366,89.8136912 10.0837446,89.4718693 10.4255664,89.3864139 C10.8528437,89.2155029 11.3655765,89.044592 11.8783093,88.8736811 Z"></path>
                        <path d="M93.9155534,1.3672874 C95.7955735,1.62365379 97.7610492,1.96547564 99.9828912,2.30729749 C100.324713,2.39275295 100.495624,2.64911934 100.495624,2.99094119 C100.410169,3.33276304 100.153802,3.50367397 99.8119803,3.50367397 C97.6755937,3.07639665 95.7101181,2.82003026 93.8300979,2.56366388 C93.7446424,2.56366388 93.659187,2.47820841 93.5737315,2.47820841 C93.4028206,2.39275295 93.3173651,2.13638656 93.3173651,1.88002018 C93.2319097,1.53819833 93.5737315,1.28183194 93.9155534,1.3672874 Z"></path>
                        <path d="M83.7463533,1.79456471 C83.5754424,1.70910925 83.4899869,1.53819833 83.4899869,1.28183194 C83.4899869,0.940010088 83.7463533,0.683643701 84.0881752,0.683643701 C86.0536508,0.683643701 88.1045819,0.769099163 90.2409685,0.940010088 C90.5827903,0.940010088 90.8391567,1.28183194 90.7537013,1.62365379 C90.7537013,1.96547564 90.4118794,2.22184203 90.0700576,2.22184203 C88.0191265,2.0509311 85.9681954,1.96547564 84.0027197,1.96547564 C84.0027197,1.96547564 83.8318088,1.88002018 83.7463533,1.79456471 Z"></path>
                        <path d="M23.5857077,81.6099668 C23.8420741,81.3536004 24.1838959,81.3536004 24.4402623,81.6099668 C24.6966287,81.8663331 24.6966287,82.208155 24.4402623,82.4645214 C22.9875194,83.9172642 21.3638656,85.1990962 19.6547564,86.3954727 C19.39839,86.5663836 19.1420236,86.5663836 18.9711127,86.3954727 C18.8856572,86.3954727 18.8856572,86.3100172 18.8002018,86.2245617 C18.6292908,85.9681954 18.7147463,85.540918 18.9711127,85.3700071 C20.6802219,84.2590861 22.2184203,82.9772542 23.5857077,81.6099668 Z"></path>
                        <path d="M26.1493715,79.815402 C25.8930052,79.6444911 25.8930052,79.2172138 26.0639161,78.9608474 C26.4057379,78.5335701 26.7475598,78.1062928 27.0893816,77.6790155 C27.9439363,76.482639 28.7130354,75.2862625 29.3966791,74.0044306 C29.5675901,73.7480642 29.9094119,73.5771533 30.2512338,73.7480642 C30.5076001,73.9189751 30.6785111,74.260797 30.5076001,74.6026188 C29.8239564,75.8844508 28.9694018,77.1662827 28.1148472,78.3626592 C27.7730253,78.7899365 27.4312035,79.2172138 27.0893816,79.7299466 C26.7475598,79.986313 26.4057379,79.986313 26.1493715,79.815402 C26.1493715,79.815402 26.1493715,79.815402 26.1493715,79.815402 Z"></path>
                        <path d="M31.2766993,71.5262222 C31.1912438,71.5262222 31.1912438,71.4407667 31.1057884,71.4407667 C30.849422,71.2698558 30.7639665,71.0134894 30.9348775,70.757123 C31.6185212,68.9625583 32.3021649,67.1679936 32.8148976,65.031607 C32.9003531,64.6897852 33.2421749,64.5188742 33.5839968,64.6043297 C33.9258186,64.6897852 34.0967296,65.031607 34.0112741,65.3734289 C33.4985413,67.5098154 32.8148976,69.3898356 32.1312539,71.2698558 C31.960343,71.5262222 31.5330657,71.6971331 31.2766993,71.5262222 Z"></path>
                        <path d="M47.4277817,19.5693009 C46.915049,20.1674892 46.4023162,20.8511329 45.9750389,21.4493211 C45.2913952,22.3893312 44.6077515,23.4147967 43.9241078,24.4402623 C43.7531968,24.6966287 43.411375,24.7820841 43.0695531,24.6111732 C43.0695531,24.6111732 43.0695531,24.6111732 43.0695531,24.6111732 C42.8131868,24.4402623 42.7277313,24.0984404 42.8986422,23.8420741 C43.5822859,22.8166085 44.2659296,21.791143 44.9495733,20.7656774 C45.4623061,20.0820337 45.9750389,19.4838455 46.4877716,18.8002018 C46.6586826,18.5438354 47.0859599,18.4583799 47.3423263,18.7147463 C47.5986927,18.9711127 47.5986927,19.3129345 47.4277817,19.5693009 Z"></path>
                        <path d="M42.129543,27.6021144 C41.189533,29.3966791 40.4204338,31.1912438 39.7367901,33.071264 C39.6513346,33.4130859 39.3095128,33.5839968 38.9676909,33.4130859 C38.8822355,33.4130859 38.8822355,33.3276304 38.79678,33.3276304 C38.6258691,33.1567195 38.4549582,32.9003531 38.6258691,32.6439867 C39.3095128,30.7639665 40.1640674,28.7984909 41.1040775,27.0039262 C41.2749884,26.7475598 41.6168103,26.5766489 41.9586321,26.7475598 C42.129543,26.9184707 42.2149985,27.2602926 42.129543,27.6021144 Z"></path>
                        <path d="M54.1787633,12.8183194 C52.6405649,14.1001513 51.1878221,15.4674387 49.7350792,16.9201816 C49.4787128,17.176548 49.136891,17.176548 48.9659801,17.0056371 C48.9659801,17.0056371 48.9659801,17.0056371 48.8805246,16.9201816 C48.6241582,16.6638152 48.6241582,16.3219934 48.8805246,16.065627 C50.247812,14.6128841 51.7860103,13.1601412 53.4096641,11.8783093 C53.6660305,11.7073984 54.0933078,11.7073984 54.2642187,11.9637648 C54.5205851,12.2201311 54.4351297,12.561953 54.1787633,12.8183194 Z"></path>
                        <path d="M65.4588843,5.89642692 C65.2879734,5.98188238 65.031607,5.98188238 64.8606961,5.81097146 C64.7752406,5.72551599 64.6897852,5.64006053 64.6897852,5.55460507 C64.5188742,5.21278322 64.6897852,4.87096137 65.031607,4.7855059 C66.9116272,3.93095128 68.8771028,3.24730758 70.8425785,2.64911934 C71.1844003,2.56366388 71.5262222,2.7345748 71.6116776,3.07639665 C71.6971331,3.4182185 71.5262222,3.76004035 71.1844003,3.84549582 C69.1334692,4.35822859 67.253449,5.04187229 65.4588843,5.89642692 Z"></path>
                        <path d="M35.464017,52.5551095 C35.3785615,52.5551095 35.293106,52.469654 35.2076506,52.469654 C35.0367397,52.3841986 34.9512842,52.1278322 34.9512842,51.8714658 L35.0367397,51.1023666 C35.2076506,49.3078019 35.464017,47.5986927 35.6349279,45.8041279 C35.7203834,45.4623061 35.9767497,45.2059397 36.3185716,45.2913952 C36.6603934,45.3768506 36.9167598,45.633217 36.8313044,45.9750389 C36.574938,47.7696036 36.4040271,49.4787128 36.2331161,51.2732775 L36.1476607,52.0423767 C36.0622052,52.3841986 35.8058388,52.6405649 35.464017,52.5551095 Z"></path>
                        <path d="M57.084249,10.5964774 C56.8278826,10.7673883 56.5715162,10.7673883 56.4006053,10.5964774 C56.3151498,10.5964774 56.3151498,10.5110219 56.2296944,10.4255664 C56.0587834,10.1692 56.1442389,9.74192273 56.4006053,9.57101181 C58.1097146,8.37463533 59.8188238,7.26371432 61.6133885,6.32370423 C61.8697549,6.15279331 62.2970322,6.23824877 62.4679431,6.58007062 C62.6388541,6.83643701 62.5533986,7.26371432 62.2115768,7.43462524 C60.417012,8.37463533 58.7079028,9.48555635 57.084249,10.5964774 Z"></path>
                        <path d="M35.1221951,55.0333179 C35.464017,55.1187734 35.7203834,55.3751397 35.6349279,55.7169616 C35.3785615,58.1097146 35.0367397,59.9897347 34.6949178,61.7842994 C34.6094623,62.1261213 34.353096,62.2970322 34.0112741,62.2970322 C33.9258186,62.2970322 33.8403632,62.2115768 33.7549077,62.2115768 C33.5839968,62.0406658 33.4985413,61.8697549 33.4985413,61.6133885 C33.8403632,59.9042793 34.0967296,57.9388036 34.4385514,55.6315061 C34.5240069,55.2042288 34.7803733,54.9478624 35.1221951,55.0333179 Z"></path>
                        <path d="M6.92189247,90.2409685 C7.26371432,90.155513 7.60553617,90.4118794 7.60553617,90.7537013 C7.69099163,91.0955231 7.43462524,91.437345 7.09280339,91.437345 C5.21278322,91.7791668 3.16185212,92.0355332 1.02546555,92.2064441 C0.854554626,92.2064441 0.769099163,92.2064441 0.598188238,92.1209887 C0.427277313,92.0355332 0.34182185,91.8646223 0.34182185,91.6937113 C0.34182185,91.3518895 0.598188238,91.0955231 0.940010088,91.0100676 C3.07639665,90.8391567 5.04187229,90.5827903 6.92189247,90.2409685 Z"></path>
                        <path d="M38.1985918,35.8058388 C38.5404136,35.8912943 38.7113245,36.2331161 38.6258691,36.574938 C38.1131363,38.3695027 37.7713145,40.3349783 37.3440371,42.4713649 C37.2585817,42.8131868 37.0022153,42.9840977 36.6603934,42.9840977 C36.574938,42.9840977 36.4894825,42.8986422 36.4040271,42.8986422 C36.2331161,42.7277313 36.1476607,42.5568204 36.1476607,42.300454 C36.4894825,40.0786119 36.9167598,38.1131363 37.4294926,36.3185716 C37.5149481,35.8912943 37.8567699,35.7203834 38.1985918,35.8058388 Z"></path>
                        <path d="M78.2772037,1.11092101 C78.9608474,1.02546555 79.7299466,0.940010088 80.4135903,0.940010088 C80.7554121,0.940010088 81.0117785,1.19637648 81.097234,1.53819833 C81.097234,1.88002018 80.8408676,2.13638656 80.4990457,2.22184203 C79.815402,2.30729749 79.1317583,2.30729749 78.4481146,2.39275295 C77.1662827,2.56366388 75.8844508,2.7345748 74.6026188,2.99094119 C74.4317079,2.99094119 74.260797,2.99094119 74.0898861,2.90548573 C74.0044306,2.82003026 73.9189751,2.7345748 73.8335197,2.56366388 C73.7480642,2.22184203 74.0044306,1.88002018 74.260797,1.88002018 C75.6280844,1.45274286 76.9953718,1.19637648 78.2772037,1.11092101 Z"></path>
                    </g>
                </g>
                <g id="Group" transform="translate(475.986927, 60.673378)">
                    <g id="Shape">
                        <polygon fill="#B0D9C8" points="31.4476102 7.52008071 35.293106 14.8692505 27.345748 13.0746858 0.256366388 4.52913952"></polygon>
                        <polygon fill="#63C1C5" points="35.293106 14.8692505 21.791143 14.1001513 25.123906 12.3910421"></polygon>
                        <polygon fill="url(#linearGradient-11)" points="31.4476102 7.52008071 33.8403632 0.256366388 0.256366388 4.52913952"></polygon>
                        <polygon fill="url(#linearGradient-12)" points="0.256366388 4.52913952 27.345748 13.0746858 23.3293413 23.5002522"></polygon>
                    </g>
                    <g transform="translate(3.418219, 18.800202)" fill="#63C1C5" id="Shape">
                        <path d="M28.8839464,3.58912943 C28.9694018,3.58912943 29.0548573,3.50367397 29.0548573,3.4182185 C29.3112237,3.16185212 29.2257682,2.7345748 28.9694018,2.56366388 C28.1148472,1.88002018 27.2602926,1.19637648 26.3202825,0.683643701 C25.9784606,0.512732775 25.6366388,0.598188238 25.4657278,0.940010088 C25.2948169,1.28183194 25.3802724,1.62365379 25.7220942,1.79456471 C26.5766489,2.30729749 27.4312035,2.90548573 28.2003026,3.58912943 C28.3712136,3.67458489 28.62758,3.67458489 28.8839464,3.58912943 Z"></path>
                        <path d="M19.0565682,72.6371432 C18.8856572,72.2953213 18.9711127,71.9534995 19.3129345,71.7825886 C21.0220438,70.757123 22.5602421,69.3898356 23.9275295,67.7661818 C24.1838959,67.5098154 24.5257178,67.42436 24.7820841,67.6807264 C25.0384505,67.9370927 25.123906,68.2789146 24.8675396,68.535281 C23.4147967,70.3298457 21.7056875,71.7825886 19.9111228,72.8080541 C19.9111228,72.8080541 19.9111228,72.8080541 19.9111228,72.8080541 C19.5693009,73.0644205 19.2274791,72.8935096 19.0565682,72.6371432 Z M26.234827,65.5443398 C25.8930052,65.3734289 25.8075497,64.9461516 25.9784606,64.6897852 C27.0039262,62.8952205 27.7730253,60.9297448 28.2857581,58.9642692 C28.3712136,58.6224473 28.7130354,58.4515364 29.0548573,58.5369919 C29.3966791,58.6224473 29.5675901,58.9642692 29.4821346,59.306091 C28.9694018,61.4424776 28.1148472,63.4934087 27.0893816,65.3734289 C27.0039262,65.4588843 26.9184707,65.5443398 26.8330152,65.6297953 C26.6621043,65.6297953 26.4057379,65.6297953 26.234827,65.5443398 Z M29.4821346,55.973328 C29.1403127,55.973328 28.8839464,55.6315061 28.8839464,55.2896843 L28.8839464,55.0333179 C28.9694018,53.1532977 28.8839464,51.1023666 28.5421245,49.0514355 C28.456669,48.7096137 28.7130354,48.3677918 29.0548573,48.3677918 C29.3966791,48.2823364 29.738501,48.5387027 29.738501,48.8805246 C30.0803228,51.0169112 30.1657783,53.0678423 30.0803228,55.1187734 L30.0803228,55.4605952 C30.0803228,55.7169616 29.9094119,55.8878725 29.738501,55.973328 C29.6530455,55.8878725 29.5675901,55.973328 29.4821346,55.973328 Z M28.5421245,45.8041279 C28.2003026,45.8895834 27.8584808,45.7186725 27.7730253,45.3768506 C27.2602926,43.4968305 26.5766489,41.4458993 25.7220942,39.3949682 C25.5511833,39.0531464 25.7220942,38.7113245 26.0639161,38.5404136 C26.4057379,38.3695027 26.7475598,38.5404136 26.9184707,38.8822355 C27.7730253,41.018622 28.5421245,43.0695531 29.0548573,45.0350288 C29.1403127,45.2913952 28.9694018,45.633217 28.7130354,45.7186725 C28.62758,45.8041279 28.62758,45.8041279 28.5421245,45.8041279 Z M25.0384505,36.2331161 C24.6966287,36.4040271 24.3548068,36.2331161 24.1838959,35.9767497 C24.0984404,35.8058388 24.012985,35.6349279 23.9275295,35.464017 C23.2438858,35.7203834 22.5602421,35.9767497 21.8765984,36.1476607 C21.5347766,36.2331161 21.1929547,36.0622052 21.1074993,35.7203834 C21.0220438,35.3785615 21.1929547,35.0367397 21.5347766,34.9512842 C22.1329648,34.7803733 22.731153,34.6094623 23.3293413,34.353096 C22.6456976,33.071264 21.9620539,31.7894321 21.1074993,30.4221447 C20.9365883,30.0803228 21.0220438,29.738501 21.3638656,29.5675901 C21.620232,29.3966791 22.0475093,29.4821346 22.2184203,29.8239564 C23.0729749,31.2766993 23.8420741,32.6439867 24.5257178,33.9258186 C25.4657278,33.4985413 26.3202825,32.9858086 27.1748371,32.4730758 C27.4312035,32.3021649 27.8584808,32.3876203 28.0293917,32.6439867 C28.2003026,32.9003531 28.1148472,33.3276304 27.8584808,33.4985413 C27.0039262,34.0967296 26.0639161,34.6094623 25.123906,35.0367397 C25.2093615,35.2076506 25.2948169,35.293106 25.2948169,35.464017 C25.4657278,35.7203834 25.3802724,36.0622052 25.0384505,36.2331161 C25.0384505,36.2331161 25.0384505,36.2331161 25.0384505,36.2331161 Z M29.9948674,30.9348775 C29.738501,30.6785111 29.738501,30.2512338 29.9948674,30.0803228 C30.849422,29.1403127 31.7039766,28.1148472 32.3021649,27.0893816 C32.7294422,26.4057379 33.071264,25.7220942 33.3276304,24.9529951 C33.4985413,24.6111732 33.8403632,24.4402623 34.182185,24.6111732 C34.5240069,24.7820841 34.6949178,25.123906 34.5240069,25.4657278 C34.182185,26.234827 33.8403632,27.0039262 33.4130859,27.7730253 C32.7294422,28.9694018 31.8748875,29.9948674 30.9348775,31.0203329 C30.849422,31.1057884 30.849422,31.1057884 30.7639665,31.1057884 C30.5076001,31.1912438 30.2512338,31.1057884 29.9948674,30.9348775 Z M18.0311026,36.8313044 C15.8092606,37.0022153 13.5874185,36.8313044 11.451032,36.3185716 C11.1092101,36.2331161 10.9382992,35.8912943 11.0237547,35.5494724 C11.1092101,35.2076506 11.451032,35.0367397 11.7928538,35.1221951 C13.7583295,35.6349279 15.8092606,35.8058388 17.9456471,35.6349279 C18.287469,35.6349279 18.6292908,35.8912943 18.6292908,36.2331161 C18.6292908,36.4894825 18.5438354,36.7458489 18.287469,36.8313044 C18.2020135,36.8313044 18.1165581,36.8313044 18.0311026,36.8313044 Z M34.8658287,22.1329648 C34.5240069,22.0475093 34.2676405,21.7056875 34.353096,21.3638656 C34.6949178,19.39839 34.6949178,17.2620034 34.4385514,15.2110723 C34.353096,14.8692505 34.6094623,14.5274286 34.9512842,14.5274286 C35.293106,14.4419732 35.6349279,14.6983396 35.6349279,15.0401614 C35.9767497,17.2620034 35.9767497,19.4838455 35.5494724,21.620232 C35.5494724,21.791143 35.3785615,21.9620539 35.2076506,22.0475093 C35.2076506,22.1329648 35.0367397,22.1329648 34.8658287,22.1329648 Z M7.77644709,34.9512842 C7.26371432,34.6949178 6.75098154,34.4385514 6.32370423,34.0967296 C4.95641683,33.2421749 3.67458489,32.0457985 2.7345748,30.6785111 C2.56366388,30.4221447 2.56366388,29.9948674 2.90548573,29.8239564 C3.16185212,29.6530455 3.58912943,29.6530455 3.76004035,29.9948674 C4.61459498,31.1912438 5.72551599,32.3021649 7.00734793,33.071264 C7.43462524,33.3276304 7.94735802,33.5839968 8.37463533,33.8403632 C8.71645718,34.0112741 8.80191265,34.353096 8.63100172,34.6949178 C8.54554626,34.7803733 8.46009079,34.9512842 8.37463533,34.9512842 C8.11826894,35.0367397 7.94735802,35.0367397 7.77644709,34.9512842 Z M19.2274791,27.0893816 C17.8601917,24.9529951 16.6638152,23.4147967 15.2965278,22.3038757 C15.0401614,22.0475093 15.0401614,21.7056875 15.2110723,21.4493211 C15.4674387,21.1929547 15.8092606,21.1929547 16.065627,21.3638656 C17.4329144,22.6456976 18.8002018,24.2693514 20.1674892,26.4057379 C20.3384001,26.6621043 20.2529446,27.0893816 19.9965782,27.2602926 C19.9965782,27.2602926 19.9965782,27.2602926 19.9111228,27.2602926 C19.7402119,27.5166589 19.39839,27.4312035 19.2274791,27.0893816 Z M34.353096,12.0492202 C34.0112741,12.1346757 33.6694523,11.9637648 33.5839968,11.6219429 C33.2421749,10.7673883 32.9003531,9.8273782 32.4730758,9.05827903 C31.960343,8.03281348 31.3621548,7.09280339 30.6785111,6.23824877 C30.5076001,5.98188238 30.5076001,5.55460507 30.7639665,5.38369414 C31.0203329,5.21278322 31.4476102,5.21278322 31.6185212,5.4691496 C32.3021649,6.40915969 32.9858086,7.43462524 33.4985413,8.54554626 C33.9258186,9.40010088 34.353096,10.340111 34.6949178,11.2801211 C34.8658287,11.5364874 34.6949178,11.8783093 34.353096,12.0492202 C34.4385514,11.9637648 34.353096,11.9637648 34.353096,12.0492202 Z M1.70910925,27.5166589 C1.3672874,27.6021144 1.02546555,27.4312035 0.940010088,27.0893816 C0.512732775,25.2948169 0.683643701,23.5857077 1.45274286,22.0475093 C1.70910925,21.5347766 2.13638656,21.0220438 2.56366388,20.5947665 C2.82003026,20.3384001 3.24730758,20.3384001 3.4182185,20.5947665 C3.67458489,20.8511329 3.67458489,21.2784102 3.4182185,21.4493211 C3.07639665,21.791143 2.82003026,22.2184203 2.56366388,22.6456976 C1.88002018,23.9275295 1.79456471,25.2948169 2.13638656,26.8330152 C2.22184203,27.0893816 2.0509311,27.4312035 1.79456471,27.5166589 C1.79456471,27.4312035 1.79456471,27.5166589 1.70910925,27.5166589 Z M12.3055866,20.2529446 C10.5110219,19.39839 8.37463533,19.2274791 6.49461516,19.7402119 C6.15279331,19.8256673 5.81097146,19.6547564 5.72551599,19.3129345 C5.64006053,18.9711127 5.81097146,18.6292908 6.15279331,18.5438354 C8.28917987,18.0311026 10.7673883,18.2020135 12.8183194,19.1420236 C13.1601412,19.3129345 13.2455967,19.6547564 13.1601412,19.9965782 C13.0746858,20.1674892 12.9892303,20.2529446 12.9037748,20.2529446 C12.6474085,20.3384001 12.4764975,20.3384001 12.3055866,20.2529446 Z"></path>
                        <path d="M16.3219934,74.4317079 C16.5783597,74.260797 16.7492707,74.0044306 16.6638152,73.6626087 C16.5783597,73.3207869 16.2365379,73.149876 15.894716,73.2353314 C14.954706,73.4916978 13.9292404,73.6626087 12.9037748,73.7480642 C12.561953,73.7480642 12.3055866,74.0898861 12.3055866,74.4317079 C12.3055866,74.7735298 12.6474085,75.0298961 12.9892303,75.0298961 C14.1001513,74.9444407 15.2110723,74.7735298 16.2365379,74.5171634 C16.2365379,74.4317079 16.2365379,74.4317079 16.3219934,74.4317079 Z"></path>
                    </g>
                </g>
            </g>
        </g>
    </g>
</svg>